<?xml version="1.0" encoding="UTF-8"?>
<svg width="690px" height="600px" viewBox="0 0 690 600" version="1.1" xmlns="http://www.w3.org/2000/svg" xmlns:xlink="http://www.w3.org/1999/xlink">
    <title>bg_13</title>
    <g id="页面-1" stroke="none" stroke-width="1" fill="none" fill-rule="evenodd">
        <g id="漆面检查-切图" transform="translate(-31.000000, -516.000000)">
            <g id="编组-19" transform="translate(30.030679, 516.000000)">
                <g id="bg_13" transform="translate(554.037392, 162.072000)">
                    <path d="M94.692,116.625548 L89.3828783,152.558876 C89.1415837,154.192254 87.7799142,155.425763 86.1368115,155.508789 L85.9474188,155.513405 L83.315,155.512548 L83.1218313,155.256608 C81.6066783,153.33494 79.3179755,152.143961 76.8164146,152.053796 L76.5169952,152.048327 L66.047,152.047548 L66.0344164,151.962894 C65.2968105,147.584293 61.5490088,144.266372 57.0394085,144.132745 L56.7631771,144.128602 L-16.5042206,144.128548 L-16.7704917,144.132259 C-21.2827454,144.25819 -25.0480164,147.574661 -25.7842715,151.971187 L-25.797,152.047548 L-36.3520004,152.048246 L-36.6531758,152.053568 C-39.1548623,152.142082 -41.4463471,153.329796 -42.9649829,155.255496 L-43.16,155.512548 L-45.3090235,155.513405 L-45.4985321,155.508114 C-47.1308658,155.419519 -48.4904407,154.193222 -48.7318755,152.558894 L-54,116.897548 L-53.9807799,116.908856 C-52.4688528,117.747207 -50.3971003,118.37972 -47.7622606,118.816473 L-47.320866,118.886987 L-29.777,118.892548 L-29.7228413,119.071484 C-28.3919883,123.26215 -24.5440415,126.188914 -20.108196,126.314072 L-19.8191444,126.318196 L60.6711066,126.318246 L60.9603096,126.314263 C65.3826312,126.192353 69.2331624,123.282944 70.5740222,119.096075 L70.636,118.891548 L88.3879808,118.893246 C90.9535614,118.432887 92.9504276,117.743033 94.4139943,116.810461 L94.692,116.625548 Z" fill="#DFEDFF" fill-rule="nonzero" transform="translate(20.346000, 136.069476) rotate(90.000000) translate(-20.346000, -136.069476) "></path>
                    <g id="13" transform="translate(13.062928, 0.000000)">
                        <polygon id="路径-30" fill="#95C1FF" fill-rule="nonzero" transform="translate(11.869000, 55.928000) scale(1, -1) translate(-11.869000, -55.928000) " points="12.369 30.928 12.369 80.928 11.369 80.928 11.369 30.928"></polygon>
                        <path d="M11.869,77.928 C13.5258542,77.928 14.869,79.2711458 14.869,80.928 C14.869,82.5848542 13.5258542,83.928 11.869,83.928 C10.2121458,83.928 8.869,82.5848542 8.869,80.928 C8.869,79.2711458 10.2121458,77.928 11.869,77.928 Z M17.264,2.84217094e-14 C19.032,2.84217094e-14 20.488,0.442 21.58,1.352 C22.646,2.262 23.192,3.484 23.192,5.044 C23.192,7.124 22.178,8.528 20.15,9.204 C21.242,9.542 22.074,10.062 22.646,10.79 C23.27,11.518 23.582,12.428 23.582,13.52 C23.582,15.21 22.984,16.588 21.814,17.654 C20.618,18.746 19.058,19.292 17.134,19.292 C15.366,19.292 13.936,18.824 12.818,17.94 C11.492,16.848 10.764,15.262 10.608,13.182 L10.608,13.182 L12.766,13.182 C12.818,14.638 13.312,15.756 14.222,16.51 C15.002,17.134 15.964,17.472 17.134,17.472 C18.46,17.472 19.526,17.082 20.332,16.328 C21.06,15.6 21.45,14.69 21.45,13.598 C21.45,12.48 21.086,11.622 20.358,10.998 C19.63,10.374 18.642,10.088 17.342,10.088 L17.342,10.088 L15.834,10.088 L15.834,8.424 L17.264,8.424 C18.512,8.424 19.448,8.138 20.098,7.592 C20.748,7.02 21.086,6.214 21.086,5.174 C21.086,4.134 20.748,3.328 20.124,2.756 C19.448,2.132 18.486,1.846 17.29,1.846 C16.042,1.846 15.08,2.158 14.378,2.834 C13.65,3.51 13.234,4.472 13.104,5.72 L13.104,5.72 L10.998,5.72 C11.154,3.926 11.83,2.522 12.974,1.508 C14.066,0.494 15.496,2.84217094e-14 17.264,2.84217094e-14 Z M6.5,0.364 L6.5,18.928 L4.368,18.928 L4.368,2.964 C3.198,4.16 1.742,4.992 3.41060513e-13,5.512 L3.41060513e-13,5.512 L3.41060513e-13,3.38 C0.832,3.146 1.716,2.782 2.6,2.262 C3.484,1.69 4.212,1.066 4.836,0.364 L4.836,0.364 L6.5,0.364 Z" id="形状结合" fill="#1677FE"></path>
                    </g>
                </g>
            </g>
        </g>
    </g>
</svg>
