<?xml version="1.0" encoding="UTF-8"?>
<svg width="640px" height="600px" viewBox="0 0 640 600" version="1.1" xmlns="http://www.w3.org/2000/svg" xmlns:xlink="http://www.w3.org/1999/xlink">
    <title>bg_1</title>
    <g id="页面-1" stroke="none" stroke-width="1" fill="none" fill-rule="evenodd">
        <g id="漆面检查-切图" transform="translate(-55.000000, -516.000000)">
            <g id="编组-19" transform="translate(55.000000, 516.000000)">
                <g id="bg_1" transform="translate(145.918321, 448.900000)">
                    <path id="clickArea" d="M106.643,0 L106.224,0.6 L106.040886,0.809779733 C102.962488,4.34178535 101.467219,7.05328187 101.340314,10.091602 L101.332706,10.45021 L101.333241,47.3609491 L101.336194,47.6901891 C101.386222,51.4756282 101.988337,53.3202265 103.89894,54.109823 L104.057,54.171 L104.057,60.449 L89.957,60.45 L89.9575968,50.0606635 C89.9575968,32.2881402 75.55012,17.8806635 57.7775968,17.8806635 L57.2790838,17.8844722 C47.322034,18.0366831 38.1709908,22.7426248 32.2298095,30.4909245 L32.003,30.79 L31.2314386,29.9858523 C25.527056,24.100496 20.1252646,19.718898 15.0236326,16.8429304 L14.5716021,16.5599711 C13.0440288,15.6309104 11.3088015,14.8434334 9.37774218,14.2038895 L9,14.083 L10.6158055,13.7491186 L12.389235,13.3897715 L14.1859171,13.0333982 L16.9199469,12.5049357 L19.6944866,11.9845049 L22.5024512,11.4729103 L25.3367555,10.9709561 L28.1903144,10.4794466 L30.0998852,10.1579734 L32.9697905,9.68565909 L35.8400566,9.22593428 L37.7502691,8.92684244 L40.6053922,8.48988749 L43.4419826,8.06766687 L46.2529552,7.66098486 L49.0312249,7.27064578 L50.8617375,7.01989632 L53.5697576,6.65858279 L55.346877,6.42792841 L57.9649666,6.09787459 L60.5196511,5.78764901 L63.0038454,5.49805597 L64.6173149,5.31685364 L66.9682808,5.0634355 C67.2246647,5.03652844 67.4793933,5.01004318 67.7324229,4.98398469 L69.2298628,4.83279469 L71.3949759,4.62573553 L72.7812919,4.50119419 L74.1194845,4.38772936 L75.4074545,4.28557935 L76.6431026,4.19498248 L77.8243295,4.11617705 L78.9490358,4.04940138 L80.0151224,3.99489377 L81.0204898,3.95289255 L81.9630389,3.92363602 C82.1147789,3.91983523 82.263814,3.9165754 82.4101004,3.91386149 L83.2544857,3.90416884 C83.6598366,3.90263777 84.0396625,3.90610938 84.3927826,3.91471771 L85.0630651,3.93882307 C85.5913776,3.96468454 86.0433203,4.00506294 86.4134266,4.06057888 C92.7518946,5.01134908 98.1568075,3.99455909 102.60856,0.999704169 L102.88239,0.810869455 C103.061952,0.68511947 103.235944,0.559340667 103.406833,0.431682219 L103.984,0 L106.643,0 Z" fill="#DFEDFF" fill-rule="nonzero"></path>
                    <g id="1" transform="translate(0.551000, 14.100000)">
                        <polygon id="路径-30" fill="#95C1FF" fill-rule="nonzero" points="83.0282 2.83445614 83.9718 3.16554386 53.854447 89 15 89 15 88 53.145 88"></polygon>
                        <path d="M6.931,77.436 L6.931,96 L4.799,96 L4.799,80.036 C3.629,81.232 2.173,82.064 0.431,82.584 L0.431,82.584 L0.431,80.452 C1.263,80.218 2.147,79.854 3.031,79.334 C3.915,78.762 4.643,78.138 5.267,77.436 L5.267,77.436 L6.931,77.436 Z M83.5,0 C85.1568542,0 86.5,1.34314575 86.5,3 C86.5,4.65685425 85.1568542,6 83.5,6 C81.8431458,6 80.5,4.65685425 80.5,3 C80.5,1.34314575 81.8431458,0 83.5,0 Z" id="形状结合" fill="#1677FE"></path>
                    </g>
                </g>
            </g>
        </g>
    </g>
</svg>
