<?xml version="1.0" encoding="UTF-8"?>
<svg width="640px" height="600px" viewBox="0 0 640 600" version="1.1" xmlns="http://www.w3.org/2000/svg" xmlns:xlink="http://www.w3.org/1999/xlink">
    <title>bg_11</title>
    <g id="页面-1" stroke="none" stroke-width="1" fill="none" fill-rule="evenodd">
        <g id="漆面检查-切图" transform="translate(-55.000000, -516.000000)">
            <g id="编组-19" transform="translate(55.000000, 516.000000)">
                <g id="bg_11" transform="translate(454.659572, 244.473655)">
                    <path id="clickArea" d="M4.03268118,2.13162821e-14 L5.06177876,0.00740483954 L5.92908705,0.0204597341 L7.83118212,0.0653304926 L9.38098092,0.115446579 L11.5736859,0.204295587 L13.2870377,0.287505422 L15.0371747,0.384965677 C15.2329378,0.396587782 15.429012,0.408474532 15.625274,0.420626177 L17.3933699,0.537149885 L18.5678635,0.622799172 C18.7629187,0.637606006 18.9575449,0.652678983 19.1516186,0.668018353 L20.0327783,0.739782023 L21.3583335,0.856090567 L22.2290268,0.938314778 L23.2219781,1.03815998 L24.2953898,1.1538764 C24.4718557,1.17359961 24.6470951,1.19354158 24.8210949,1.21370257 L25.8501156,1.33729894 L26.8487664,1.46616489 C27.0126429,1.4880824 27.1752281,1.51022002 27.336509,1.53257802 L28.2884409,1.66937275 L29.2084507,1.8114696 C29.3590911,1.83559497 29.5083754,1.85994181 29.6562909,1.88451039 L30.5272539,2.03458484 C30.6696422,2.06004144 30.8106357,2.08572032 30.9502215,2.11162175 L31.7707407,2.26970309 L32.5568549,2.43313862 C35.1192038,2.98686189 37.0977876,3.63003882 38.3891409,4.36483928 C39.3816656,4.92960153 40.3209619,6.32812291 41.1968396,8.45526756 L41.4144819,9.00217253 L41.6294463,9.57907174 L41.8416976,10.1856002 L42.0512002,10.8213927 C42.1205724,11.0381603 42.1894806,11.2597445 42.2579189,11.4860843 L42.4618182,12.17931 C42.5293108,12.4151003 42.5963277,12.6555855 42.6628628,12.9007046 L42.8610172,13.6499032 L43.0562462,14.4265406 L43.2485142,15.2302518 L43.4377859,16.0606717 L43.624026,16.9174354 L43.8071991,17.8001777 C43.8374704,17.949446 43.8676124,18.0997816 43.8976244,18.2511767 L44.0761305,19.1722025 L44.2514811,20.1182943 L44.4236409,21.089087 L44.5925744,22.0842157 L44.8398479,23.6217398 L45.0005609,24.6761111 L45.1579238,25.7535405 L45.3119012,26.8536631 L45.4700379,28.0344919 L45.6310723,29.2967847 L45.7868604,30.5792216 L45.937223,31.8778965 L46.0819806,33.1889035 L46.2209543,34.5083365 L46.3539647,35.8322894 L46.4808326,37.1568561 L46.6592252,39.1363129 L46.8227891,41.0951793 L46.9709194,43.0202726 L47.0608,44.2783952 L47.1818635,46.1179045 L47.2858805,47.8884862 L47.3454561,49.0240708 L47.4197178,50.6504778 L47.4588966,51.6777396 L47.489603,52.6548367 L47.5116578,53.577863 L47.5248817,54.4429125 L47.5288646,55.1258141 L47.5245978,55.8837951 L47.511907,56.6997926 L47.4774332,58.0247851 L47.4443976,58.9702543 L47.4035102,59.9612845 L47.3278149,61.5254716 L47.2680136,62.6148345 L47.1647139,64.3098393 L47.0455876,66.0673202 L46.9576499,67.2677519 L46.8133721,69.1026693 L46.6547393,70.9680342 L46.4823035,72.8518359 L46.2966165,74.7420636 L46.165736,75.9998542 L45.9591902,77.8741015 L45.8149148,79.1101174 L45.6655676,80.3311956 L45.4323951,82.1270201 L45.2025662,83.7794945 L45.0450149,84.8531201 L44.8840392,85.9038969 L44.7196748,86.9314568 L44.5519571,87.9354318 L44.3809217,88.9154537 L44.2066041,89.8711545 L44.0290398,90.8021659 L43.8482643,91.7081199 C43.8178694,91.8570037 43.7873422,92.0048281 43.7566834,92.1515854 L43.5711578,93.0192631 L43.3825098,93.8609631 L43.1907749,94.6763173 L42.9959887,95.4649576 C42.9632721,95.5941511 42.9304297,95.7222161 42.8974625,95.8491451 L42.6981659,96.5970243 C42.6647019,96.7193782 42.6311145,96.8405807 42.5974044,96.9606241 L42.3936773,97.666914 L42.187041,98.3450176 C42.0830014,98.6769615 41.9778842,98.9981974 41.8717093,99.3085183 L41.6579552,99.9145455 L41.4414162,100.491098 L41.2221278,101.037808 C40.3395225,103.16447 39.3917837,104.566068 38.3891409,105.136588 C37.0977876,105.871388 35.1192038,106.514565 32.5566451,107.06831 L31.7704614,107.231753 L30.9498588,107.389843 C30.8102579,107.415746 30.6692487,107.441426 30.526844,107.466884 L29.6557746,107.61697 L28.7518351,107.761735 L27.8156449,107.901194 C27.6569601,107.923995 27.4969573,107.946576 27.3356495,107.968937 L26.352245,108.10046 C26.1857686,108.121941 26.0180129,108.143202 25.8489909,108.164243 L24.8197662,108.287861 L23.7607689,108.406224 C23.5818228,108.425514 23.4016619,108.444585 23.2202993,108.463439 L22.2260141,108.563406 L21.3569866,108.645462 L20.031569,108.761745 L19.1504292,108.833504 C18.3743043,108.894848 17.5893158,108.951932 16.8033628,109.004771 L15.6246971,109.080847 L13.9428881,109.178903 L12.287794,109.263912 L10.6769125,109.335906 L9.12774171,109.394923 L7.65777941,109.440995 L6.28452353,109.474159 L5.43138634,109.489114 L4.25819205,109.501429 L4.03137936,109.501429 L3.74686793,109.495984 C2.25086948,109.437892 1.0965289,108.914859 0.25139688,107.919774 L0.105380252,107.737714 L-5.08038056e-13,107.998237 C7.27872256,90.2525812 10.9188628,72.5029891 10.9188628,54.7507136 L10.9148244,53.7265762 C10.7802124,36.6576595 7.28032041,19.5908027 0.417044881,2.52870101 L0.105380252,1.76371361 L0.25248682,1.5826712 C1.14930229,0.524613897 2.39610505,2.13162821e-14 4.03268118,2.13162821e-14 Z" fill="#DFEDFF" fill-rule="nonzero"></path>
                    <path d="M33.5277484,45.9623449 L33.5277484,64.5263449 L31.3957484,64.5263449 L31.3957484,48.5623449 C30.2257484,49.7583449 28.7697484,50.5903449 27.0277484,51.1103449 L27.0277484,51.1103449 L27.0277484,48.9783449 C27.8597484,48.7443449 28.7437484,48.3803449 29.6277484,47.8603449 C30.5117484,47.2883449 31.2397484,46.6643449 31.8637484,45.9623449 L31.8637484,45.9623449 L33.5277484,45.9623449 Z M43.9537484,45.9623449 L43.9537484,64.5263449 L41.8217484,64.5263449 L41.8217484,48.5623449 C40.6517484,49.7583449 39.1957484,50.5903449 37.4537484,51.1103449 L37.4537484,51.1103449 L37.4537484,48.9783449 C38.2857484,48.7443449 39.1697484,48.3803449 40.0537484,47.8603449 C40.9377484,47.2883449 41.6657484,46.6643449 42.2897484,45.9623449 L42.2897484,45.9623449 L43.9537484,45.9623449 Z M19.3097484,52.5263449 C20.9666027,52.5263449 22.3097484,53.8694906 22.3097484,55.5263449 C22.3097484,57.1831991 20.9666027,58.5263449 19.3097484,58.5263449 C17.6528942,58.5263449 16.3097484,57.1831991 16.3097484,55.5263449 C16.3097484,53.8694906 17.6528942,52.5263449 19.3097484,52.5263449 Z" id="11" fill="#1677FE"></path>
                </g>
            </g>
        </g>
    </g>
</svg>
