<?xml version="1.0" encoding="UTF-8"?>
<svg width="640px" height="600px" viewBox="0 0 640 600" version="1.1" xmlns="http://www.w3.org/2000/svg" xmlns:xlink="http://www.w3.org/1999/xlink">
    <title>bg_12</title>
    <g id="页面-1" stroke="none" stroke-width="1" fill="none" fill-rule="evenodd">
        <g id="漆面检查-切图" transform="translate(-55.000000, -516.000000)">
            <g id="编组-19" transform="translate(55.000000, 516.000000)">
                <g id="bg_12" transform="translate(64.204748, 225.216000)">
                    <path id="clickArea" d="M7.66657209,0 L43.7449122,5.33064738 C45.3782789,5.57194018 46.6117875,6.93360963 46.694813,8.57671234 L46.699429,8.76610506 L46.6975721,39.486 L46.2093816,39.4855239 C43.5595071,39.4855239 41.3818771,41.5702202 41.2596552,44.2076608 L41.2544037,44.4289661 L41.2542701,104.830524 C41.2542701,107.480287 43.3389665,109.657917 45.9764071,109.780139 L46.1977124,109.78539 L46.6975721,109.786 L46.699429,140.022559 L46.6941381,140.212067 C46.6055432,141.84439 45.3792469,143.203965 43.7449188,143.445399 L6.72357209,148.913 L6.90115998,149.130434 C3.40064787,144.88997 1.66427014,141.334271 1.66427014,138.490524 L1.66427014,30.5805239 L1.64719156,30.4509596 C-1.74908321,17.7921173 0.108582843,7.82115888 7.2019678,0.469633322 L7.66657209,0 Z" fill="#DFEDFF" fill-rule="nonzero"></path>
                    <g id="编组-12" transform="translate(7.895572, 127.784000)">
                        <polygon fill="#95C1FF" fill-rule="nonzero" points="12.369 3 12.369 53 11.369 53 11.369 3"></polygon>
                        <path d="M6.5,65.436 L6.5,84 L4.368,84 L4.368,68.036 C3.198,69.232 1.742,70.064 4.35207426e-13,70.584 L4.35207426e-13,70.584 L4.35207426e-13,68.452 C0.832,68.218 1.716,67.854 2.6,67.334 C3.484,66.762 4.212,66.138 4.836,65.436 L4.836,65.436 L6.5,65.436 Z M17.342,65.072 C19.058,65.072 20.462,65.566 21.58,66.554 C22.672,67.542 23.244,68.868 23.244,70.48 C23.244,72.092 22.62,73.548 21.424,74.848 C20.774,75.524 19.5,76.538 17.576,77.838 C15.21,79.424 13.858,80.854 13.52,82.102 L13.52,82.102 L23.27,82.102 L23.27,84 L10.894,84 C10.894,82.31 11.492,80.776 12.74,79.398 C13.468,78.566 14.794,77.448 16.77,76.096 C18.226,75.056 19.188,74.302 19.682,73.782 C20.618,72.768 21.112,71.65 21.112,70.454 C21.112,69.31 20.774,68.452 20.098,67.828 C19.422,67.204 18.46,66.892 17.264,66.892 C15.99,66.892 15.002,67.308 14.326,68.192 C13.598,69.024 13.208,70.272 13.182,71.91 L13.182,71.91 L11.05,71.91 C11.05,69.83 11.648,68.166 12.792,66.944 C13.936,65.696 15.47,65.072 17.342,65.072 Z M11.869,-2.84217094e-14 C13.5258542,-2.84217094e-14 14.869,1.34314575 14.869,3 C14.869,4.65685425 13.5258542,6 11.869,6 C10.2121458,6 8.869,4.65685425 8.869,3 C8.869,1.34314575 10.2121458,-2.84217094e-14 11.869,-2.84217094e-14 Z" id="形状结合" fill="#1677FE"></path>
                    </g>
                </g>
                <g transform="translate(5.000000, 72.000000)">
                    <path id="show" d="M65.9450236,259.17822 L65.5092589,259.293638 C65.2068065,259.379125 64.9095556,259.473532 64.6118117,259.578184 L64.1762657,259.738502 C63.5836126,259.966593 63.0052141,260.228282 62.4540789,260.516938 L62.0537967,260.734109 C60.1647509,261.796156 58.8313837,263.056247 58.4905504,264.249163 C58.444942,264.408793 58.4003539,264.590375 58.356648,264.793691 L58.2703711,265.229235 L58.1862009,265.722342 L58.0953281,266.334353 L58.0503887,266.668635 L57.9651671,267.36358 L57.8832083,268.110239 L57.843498,268.500981 L57.7672307,269.307438 L57.6944723,270.148898 L57.6253231,271.018402 L57.5283711,272.362033 L57.468119,273.277215 L57.3584425,275.123121 L57.26289,276.955329 L57.2005121,278.292105 L57.0997299,280.781612 L57.0223241,283.20326 L56.9904011,284.685681 L56.9863295,285.172386 C56.9863295,286.360351 57.3739953,288.091398 57.9816324,289.873167 L58.204953,290.50333 C59.2485385,293.34133 60.7972128,296.161159 62.1790645,296.99027 C63.1465352,297.570753 64.6925667,297.084839 66.4127644,295.832647 L66.7647642,295.567226 L67.1266402,295.275669 C67.2537577,295.169898 67.3748988,295.065851 67.4959065,294.958734 L67.8546784,294.631686 C67.9817093,294.512539 68.1030423,294.39538 68.2237832,294.275472 L68.5815183,293.910247 L68.7643752,293.715832 L69.1206712,293.321013 L69.4751819,292.906305 L69.824438,292.47474 C70.3600207,291.79406 70.8555151,291.077975 71.304025,290.33297 L71.6000486,289.824766 C73.3356824,286.741771 74.1651953,283.419668 73.8235651,280.174181 L73.7628197,279.604392 L73.5813011,277.982101 L73.4609909,276.965506 L73.3419709,275.99939 L73.1093576,274.204878 L72.3935945,269.020923 L72.3096616,268.37975 L72.1942756,267.442097 L72.0932053,266.527643 L72.0076649,265.624812 L71.9600199,265.025451 L71.9113073,264.268856 L71.8756434,263.501657 L71.8537157,262.716518 L71.8463124,261.911524 C71.8463124,259.156167 69.3853994,258.328849 65.9450236,259.17822 Z M70.8463339,261.916163 L70.8539336,262.735171 L70.8763816,263.53894 L70.9128845,264.324288 L70.9626315,265.097282 L71.0114734,265.711676 L71.0984662,266.629788 L71.2010485,267.558123 L71.3176369,268.505734 L71.4025246,269.15422 L72.1182055,274.337545 L72.3498717,276.124806 L72.4682085,277.085412 L72.5878677,278.096469 L72.8290597,280.278866 C73.1473039,283.302186 72.3684391,286.42145 70.7322742,289.327862 L70.4435907,289.82346 C70.0204169,290.526278 69.5485994,291.208145 69.0427048,291.851163 L68.7062418,292.267126 L68.369239,292.661341 L68.0287617,293.038508 L67.8599386,293.217992 L67.514226,293.570859 C67.4050493,293.679214 67.2904912,293.789831 67.1756342,293.897624 L66.8276151,294.214871 C66.7195789,294.310433 66.6060787,294.407917 66.4927761,294.502264 L66.1497522,294.778875 L65.8174069,295.029231 C64.4005497,296.060522 63.2013234,296.437435 62.6935603,296.132777 C61.9386393,295.679825 61.0823032,294.418582 60.3089162,292.868336 L60.0397005,292.310036 C59.907115,292.025732 59.7777881,291.73433 59.6527331,291.438684 L59.408619,290.842579 L59.1776978,290.240232 C58.9912609,289.737083 58.8204427,289.232716 58.669934,288.740342 L58.4993725,288.156097 C58.1789473,287.002501 57.9863124,285.948429 57.9863124,285.176524 L57.9902682,284.700574 L58.0219533,283.229986 L58.0990656,280.817805 L58.1995596,278.335632 L58.2616683,277.004669 L58.356884,275.178811 L58.4661592,273.339709 L58.5259952,272.430855 L58.6224538,271.094013 L58.6910413,270.231593 L58.7631525,269.397569 L58.8387175,268.598582 L58.8776658,268.215301 L58.9584683,267.478959 L59.0635995,266.634479 L59.174544,265.874489 L59.2527508,265.416015 C59.2658843,265.344282 59.2790621,265.27492 59.2922762,265.207978 L59.3719317,264.835744 C59.398586,264.721601 59.4253215,264.617519 59.4520744,264.523884 C59.7023277,263.647998 60.8638365,262.55032 62.537336,261.6094 L62.9245534,261.399321 C63.4351874,261.131939 63.9786252,260.886067 64.5286655,260.674323 L64.9503792,260.519097 C65.2217648,260.423768 65.499223,260.335647 65.7734551,260.258071 L66.1929612,260.146959 C69.0048073,259.452834 70.742014,259.988635 70.8417702,261.748193 L70.8463339,261.916163 Z" fill="#B4B4B4"></path>
                    <path id="show" d="M70.8463339,261.916163 L70.8539336,262.735171 L70.8763816,263.53894 L70.9128845,264.324288 L70.9626315,265.097282 L71.0114734,265.711676 L71.0984662,266.629788 L71.2010485,267.558123 L71.3176369,268.505734 L71.4025246,269.15422 L72.1182055,274.337545 L72.3498717,276.124806 L72.4682085,277.085412 L72.5878677,278.096469 L72.8290597,280.278866 C73.1473039,283.302186 72.3684391,286.42145 70.7322742,289.327862 L70.4435907,289.82346 C70.0204169,290.526278 69.5485994,291.208145 69.0427048,291.851163 L68.7062418,292.267126 L68.369239,292.661341 L68.0287617,293.038508 L67.8599386,293.217992 L67.514226,293.570859 C67.4050493,293.679214 67.2904912,293.789831 67.1756342,293.897624 L66.8276151,294.214871 C66.7195789,294.310433 66.6060787,294.407917 66.4927761,294.502264 L66.1497522,294.778875 L65.8174069,295.029231 C64.4005497,296.060522 63.2013234,296.437435 62.6935603,296.132777 C61.9386393,295.679825 61.0823032,294.418582 60.3089162,292.868336 L60.0397005,292.310036 C59.907115,292.025732 59.7777881,291.73433 59.6527331,291.438684 L59.408619,290.842579 L59.1776978,290.240232 C58.9912609,289.737083 58.8204427,289.232716 58.669934,288.740342 L58.4993725,288.156097 C58.1789473,287.002501 57.9863124,285.948429 57.9863124,285.176524 L57.9902682,284.700574 L58.0219533,283.229986 L58.0990656,280.817805 L58.1995596,278.335632 L58.2616683,277.004669 L58.356884,275.178811 L58.4661592,273.339709 L58.5259952,272.430855 L58.6224538,271.094013 L58.6910413,270.231593 L58.7631525,269.397569 L58.8387175,268.598582 L58.8776658,268.215301 L58.9584683,267.478959 L59.0635995,266.634479 L59.174544,265.874489 L59.2527508,265.416015 C59.2658843,265.344282 59.2790621,265.27492 59.2922762,265.207978 L59.3719317,264.835744 C59.398586,264.721601 59.4253215,264.617519 59.4520744,264.523884 C59.7023277,263.647998 60.8638365,262.55032 62.537336,261.6094 L62.9245534,261.399321 C63.4351874,261.131939 63.9786252,260.886067 64.5286655,260.674323 L64.9503792,260.519097 C65.2217648,260.423768 65.499223,260.335647 65.7734551,260.258071 L66.1929612,260.146959 C69.0048073,259.452834 70.742014,259.988635 70.8417702,261.748193 L70.8463339,261.916163 Z" fill="#FFFFFF"></path>
                    <path id="show" d="M62.0917707,158.105107 C60.6629407,158.962405 59.1997341,161.54699 58.0659322,164.786836 L57.8530005,165.417158 C57.2979783,167.121642 56.9449282,168.712277 56.9032502,169.721939 L56.8994885,170.052448 L56.91497,171.065671 L56.9738129,173.194438 L57.0269035,174.703836 L57.113097,176.800508 L57.1754611,178.137315 L57.2709469,179.96864 L57.3806254,181.814974 L57.4408608,182.730206 L57.5377524,184.073324 L57.6068937,184.943048 L57.6795744,185.783934 L57.7952602,186.978805 L57.8771391,187.725477 L57.9626295,188.42306 L58.0070647,188.754166 L58.0980878,189.367714 L58.1827787,189.864203 C58.2540628,190.253135 58.3272426,190.580165 58.4032566,190.846214 C58.7440898,192.03913 60.0774571,193.299222 61.9599483,194.357647 L62.3602749,194.574968 C62.9179203,194.867095 63.4963187,195.128785 64.0821121,195.354292 L64.5175453,195.514685 C64.8222617,195.621845 65.1195127,195.716252 65.4139574,195.799546 L65.8494789,195.915045 L66.2790942,196.013587 L66.5013452,196.058316 L66.9149045,196.129118 C69.8139231,196.565504 71.7590186,195.616414 71.7590186,193.183853 L71.7638854,192.530188 L71.7698369,192.213545 L71.7886675,191.585409 L71.816244,190.970782 L71.8331036,190.668584 L71.8732097,190.063292 L71.9210274,189.463039 L72.0067075,188.559981 L72.1076976,187.647152 L72.2228544,186.711796 L72.3067688,186.070974 L73.0215133,180.894611 L73.2542802,179.099127 L73.4333306,177.631342 L73.5540884,176.588852 L73.7360616,174.923151 C74.1844829,170.663185 72.6033552,166.263663 69.7413334,162.625889 L69.3964919,162.199423 L69.0422814,161.784507 L68.6839959,161.387055 L68.5013437,161.192551 L68.1413926,160.824843 C68.0157484,160.699998 67.8944155,160.582838 67.7726691,160.46858 L67.4140809,160.141556 C67.2876049,160.029526 67.1664638,159.92548 67.0453795,159.824653 L66.6902893,159.538152 L66.332306,159.267796 C64.6052728,158.010538 63.0592414,157.524625 62.0917707,158.105107 Z M65.7369486,160.071211 L66.0752773,160.326502 L66.4115154,160.598058 C66.5187848,160.68746 66.632285,160.784944 66.7457895,160.885419 L67.093625,161.202642 C67.2031974,161.305546 67.3177555,161.416164 67.4318353,161.529456 L67.779764,161.884806 L67.9483824,162.064379 L68.2908493,162.444179 L68.6275518,162.838602 L68.9596002,163.249466 C71.6679836,166.692031 73.1599745,170.843528 72.7417658,174.816511 L72.560366,176.477025 L72.4403298,177.513273 L72.2621076,178.974309 L72.0303613,180.761944 L71.315699,185.937676 L71.2308297,186.585811 L71.1144704,187.531127 L71.0119685,188.457836 L70.9248359,189.376174 L70.8758783,189.990589 L70.8349696,190.607747 L70.8175181,190.920613 L70.7893918,191.548085 L70.770148,192.189242 L70.7639865,192.51713 L70.7590323,193.180141 C70.7590186,194.854795 69.4406693,195.498071 67.0735774,195.141837 L66.6793474,195.074333 L66.4933426,195.036848 L66.0890318,194.944313 L65.6781535,194.835113 C65.4119291,194.75973 65.1344709,194.671609 64.8561128,194.573772 L64.4345119,194.418471 C63.8913313,194.20931 63.3478935,193.963438 62.8307494,193.692585 L62.4434875,193.482357 C60.7765427,192.545057 59.6150339,191.44738 59.3647805,190.571493 C59.3112748,190.384223 59.2578385,190.155167 59.2048295,189.886406 L59.125681,189.453744 C59.1125579,189.376758 59.0994727,189.297354 59.0864309,189.215566 L58.9971967,188.614199 L58.9544638,188.295657 L58.8704403,187.610098 L58.7899497,186.87608 L58.6753883,185.692676 L58.6034627,184.860353 L58.534883,183.997712 L58.4384848,182.661384 L58.3786656,181.752479 L58.2693885,179.91295 L58.1742394,178.087975 L58.1121316,176.756665 L58.0261723,174.665716 L57.9733125,173.163033 L57.9147192,171.044124 L57.8994003,170.050062 L57.9027962,169.747898 C57.9396229,168.86143 58.2746543,167.351977 58.8021409,165.731963 L59.0115761,165.111994 L59.2428331,164.474047 C60.2644444,161.752311 61.5285281,159.609243 62.6062664,158.9626 C63.1140295,158.657942 64.3132559,159.034855 65.7369486,160.071211 Z" fill="#B4B4B4"></path>
                    <path id="show" d="M65.7369486,160.071211 L66.0752773,160.326502 L66.4115154,160.598058 C66.5187848,160.68746 66.632285,160.784944 66.7457895,160.885419 L67.093625,161.202642 C67.2031974,161.305546 67.3177555,161.416164 67.4318353,161.529456 L67.779764,161.884806 L67.9483824,162.064379 L68.2908493,162.444179 L68.6275518,162.838602 L68.9596002,163.249466 C71.6679836,166.692031 73.1599745,170.843528 72.7417658,174.816511 L72.560366,176.477025 L72.4403298,177.513273 L72.2621076,178.974309 L72.0303613,180.761944 L71.315699,185.937676 L71.2308297,186.585811 L71.1144704,187.531127 L71.0119685,188.457836 L70.9248359,189.376174 L70.8758783,189.990589 L70.8349696,190.607747 L70.8175181,190.920613 L70.7893918,191.548085 L70.770148,192.189242 L70.7639865,192.51713 L70.7590323,193.180141 C70.7590186,194.854795 69.4406693,195.498071 67.0735774,195.141837 L66.6793474,195.074333 L66.4933426,195.036848 L66.0890318,194.944313 L65.6781535,194.835113 C65.4119291,194.75973 65.1344709,194.671609 64.8561128,194.573772 L64.4345119,194.418471 C63.8913313,194.20931 63.3478935,193.963438 62.8307494,193.692585 L62.4434875,193.482357 C60.7765427,192.545057 59.6150339,191.44738 59.3647805,190.571493 C59.3112748,190.384223 59.2578385,190.155167 59.2048295,189.886406 L59.125681,189.453744 C59.1125579,189.376758 59.0994727,189.297354 59.0864309,189.215566 L58.9971967,188.614199 L58.9544638,188.295657 L58.8704403,187.610098 L58.7899497,186.87608 L58.6753883,185.692676 L58.6034627,184.860353 L58.534883,183.997712 L58.4384848,182.661384 L58.3786656,181.752479 L58.2693885,179.91295 L58.1742394,178.087975 L58.1121316,176.756665 L58.0261723,174.665716 L57.9733125,173.163033 L57.9147192,171.044124 L57.8994003,170.050062 L57.9027962,169.747898 C57.9396229,168.86143 58.2746543,167.351977 58.8021409,165.731963 L59.0115761,165.111994 L59.2428331,164.474047 C60.2644444,161.752311 61.5285281,159.609243 62.6062664,158.9626 C63.1140295,158.657942 64.3132559,159.034855 65.7369486,160.071211 Z" fill="#FFFFFF"></path>
                    <path id="show" d="M70.9290186,265.821524 C70.9290186,268.85909 68.4665847,271.321524 65.4290186,271.321524 C62.3914524,271.321524 59.9290186,268.85909 59.9290186,265.821524 C59.9290186,262.783958 62.3914524,260.321524 65.4290186,260.321524 C68.4665847,260.321524 70.9290186,262.783958 70.9290186,265.821524 Z M69.9290186,265.821524 C69.9290186,263.336242 67.9142999,261.321524 65.4290186,261.321524 C62.9437372,261.321524 60.9290186,263.336242 60.9290186,265.821524 C60.9290186,268.306805 62.9437372,270.321524 65.4290186,270.321524 C67.9142999,270.321524 69.9290186,268.306805 69.9290186,265.821524 Z" fill="#B4B4B4"></path>
                    <path id="show" d="M68.9490186,265.841524 C68.9490186,267.77452 67.3820152,269.341524 65.4490186,269.341524 C63.5160219,269.341524 61.9490186,267.77452 61.9490186,265.841524 C61.9490186,263.908527 63.5160219,262.341524 65.4490186,262.341524 C67.3820152,262.341524 68.9490186,263.908527 68.9490186,265.841524 Z M67.9490186,265.841524 C67.9490186,264.460812 66.8297304,263.341524 65.4490186,263.341524 C64.0683067,263.341524 62.9490186,264.460812 62.9490186,265.841524 C62.9490186,267.222236 64.0683067,268.341524 65.4490186,268.341524 C66.8297304,268.341524 67.9490186,267.222236 67.9490186,265.841524 Z" fill="#B4B4B4"></path>
                    <path id="show" d="M72.9090186,278.671524 C72.9090186,282.813659 69.5511542,286.171524 65.4090186,286.171524 C61.2668829,286.171524 57.9090186,282.813659 57.9090186,278.671524 C57.9090186,274.529388 61.2668829,271.171524 65.4090186,271.171524 C69.5511542,271.171524 72.9090186,274.529388 72.9090186,278.671524 Z M71.9090186,278.671524 C71.9090186,275.081673 68.9988694,272.171524 65.4090186,272.171524 C61.8191677,272.171524 58.9090186,275.081673 58.9090186,278.671524 C58.9090186,282.261375 61.8191677,285.171524 65.4090186,285.171524 C68.9988694,285.171524 71.9090186,282.261375 71.9090186,278.671524 Z" fill="#B4B4B4"></path>
                    <path id="show" d="M70.9290186,278.691524 C70.9290186,281.72909 68.4665847,284.191524 65.4290186,284.191524 C62.3914524,284.191524 59.9290186,281.72909 59.9290186,278.691524 C59.9290186,275.653958 62.3914524,273.191524 65.4290186,273.191524 C68.4665847,273.191524 70.9290186,275.653958 70.9290186,278.691524 Z M69.9290186,278.691524 C69.9290186,276.206242 67.9142999,274.191524 65.4290186,274.191524 C62.9437372,274.191524 60.9290186,276.206242 60.9290186,278.691524 C60.9290186,281.176805 62.9437372,283.191524 65.4290186,283.191524 C67.9142999,283.191524 69.9290186,281.176805 69.9290186,278.691524 Z" fill="#B4B4B4"></path>
                    <path id="show" d="M59.8690186,189.821524 C59.8690186,192.85909 62.3314524,195.321524 65.3690186,195.321524 C68.4065847,195.321524 70.8690186,192.85909 70.8690186,189.821524 C70.8690186,186.783958 68.4065847,184.321524 65.3690186,184.321524 C62.3314524,184.321524 59.8690186,186.783958 59.8690186,189.821524 Z M60.8690186,189.821524 C60.8690186,187.336242 62.8837372,185.321524 65.3690186,185.321524 C67.8542999,185.321524 69.8690186,187.336242 69.8690186,189.821524 C69.8690186,192.306805 67.8542999,194.321524 65.3690186,194.321524 C62.8837372,194.321524 60.8690186,192.306805 60.8690186,189.821524 Z" fill="#B4B4B4"></path>
                    <path id="show" d="M61.8490186,189.841524 C61.8490186,191.77452 63.4160219,193.341524 65.3490186,193.341524 C67.2820152,193.341524 68.8490186,191.77452 68.8490186,189.841524 C68.8490186,187.908527 67.2820152,186.341524 65.3490186,186.341524 C63.4160219,186.341524 61.8490186,187.908527 61.8490186,189.841524 Z M62.8490186,189.841524 C62.8490186,188.460812 63.9683067,187.341524 65.3490186,187.341524 C66.7297304,187.341524 67.8490186,188.460812 67.8490186,189.841524 C67.8490186,191.222236 66.7297304,192.341524 65.3490186,192.341524 C63.9683067,192.341524 62.8490186,191.222236 62.8490186,189.841524 Z" fill="#B4B4B4"></path>
                    <path id="show" d="M57.8890186,177.5 C57.8890186,181.642136 61.2468829,185 65.3890186,185 C69.5311542,185 72.8890186,181.642136 72.8890186,177.5 C72.8890186,173.357864 69.5311542,170 65.3890186,170 C61.2468829,170 57.8890186,173.357864 57.8890186,177.5 Z M58.8890186,177.5 C58.8890186,173.910149 61.7991677,171 65.3890186,171 C68.9788694,171 71.8890186,173.910149 71.8890186,177.5 C71.8890186,181.089851 68.9788694,184 65.3890186,184 C61.7991677,184 58.8890186,181.089851 58.8890186,177.5 Z" fill="#B4B4B4"></path>
                    <path id="show" d="M59.8690186,177.5 C59.8690186,180.537566 62.3314524,183 65.3690186,183 C68.4065847,183 70.8690186,180.537566 70.8690186,177.5 C70.8690186,174.462434 68.4065847,172 65.3690186,172 C62.3314524,172 59.8690186,174.462434 59.8690186,177.5 Z M60.8690186,177.5 C60.8690186,175.014719 62.8837372,173 65.3690186,173 C67.8542999,173 69.8690186,175.014719 69.8690186,177.5 C69.8690186,179.985281 67.8542999,182 65.3690186,182 C62.8837372,182 60.8690186,179.985281 60.8690186,177.5 Z" fill="#B4B4B4"></path>
                    <path id="show" d="M59.2181857,221.805922 L59.1880932,217.60006 L59.1866966,215.176873 L59.1981104,213.757079 L59.2112178,212.845666 L59.228943,211.962498 L59.2646008,210.690992 L59.2946934,209.879009 L59.3300621,209.095729 L59.3708947,208.341283 L59.4173794,207.6158 L59.4697042,206.919412 L59.5280571,206.25225 L59.5926261,205.614443 L59.6635993,205.006123 L59.6635993,205.006123 L59.7411646,204.42742 L59.8702843,203.615185 L59.9651527,203.111097 L60.0672714,202.637084 C60.5081319,200.724866 61.142698,199.599244 62.0321763,199.302752 C65.1779705,198.254154 69.3148519,199.288374 72.4103824,201.867983 C73.5925279,202.853104 74.2377909,204.597076 74.5301665,207.356534 L74.5874842,207.963484 L74.6344015,208.60208 L74.6713207,209.272886 L74.6986442,209.976461 L74.7225177,211.094494 L74.7276121,211.882449 L74.724519,212.705138 L74.7054076,214.005524 L74.5791561,218.970535 L74.5702902,220.072093 C74.5702902,224.478828 72.6690229,226.084372 68.808706,226.434076 L68.3052529,226.472016 C67.9625168,226.49292 67.6055733,226.505204 67.2343868,226.509821 L66.3280905,226.513696 L65.0080632,226.525824 L64.7778407,226.523934 C61.1681549,226.478813 59.3011835,225.317581 59.2181857,221.805922 Z M60.1849944,215.666541 L60.1940651,218.524991 L60.2143081,221.055067 L60.2152902,221.557093 C60.2152902,224.521061 61.5075792,225.437048 64.5467663,225.519234 L65.1267465,225.525968 L66.488384,225.51251 L67.2263658,225.509939 L67.7565587,225.497951 L68.2618007,225.474405 C71.8760297,225.257301 73.4976112,224.040007 73.5678967,220.328998 L73.5792064,218.95826 L73.688405,214.740415 L73.7137207,213.546915 L73.7240712,212.699962 L73.7264418,211.888726 L73.7144129,210.737969 L73.6955891,210.014279 L73.6677896,209.324908 C73.6623926,209.21285 73.6566098,209.102206 73.6504352,208.992967 L73.608639,208.354324 L73.5571561,207.749001 C73.3032612,205.099419 72.7464911,203.449781 71.770198,202.636204 C68.9257284,200.265813 65.1426099,199.320033 62.3484041,200.251435 C61.9513062,200.383801 61.6120948,200.912122 61.3281398,201.792495 L61.2242417,202.139051 L61.1742256,202.324545 L61.0780401,202.719644 L60.9869579,203.146462 L60.900948,203.604484 L60.8199798,204.093195 L60.7440223,204.612082 L60.6730448,205.160629 L60.6070164,205.738322 L60.5459064,206.344647 L60.4896838,206.979089 L60.4383178,207.641134 L60.3917778,208.330267 L60.3500327,209.045974 L60.3130518,209.78774 L60.2808043,210.55505 L60.2532594,211.347391 L60.2206919,212.581708 L60.2047685,213.434374 L60.1894888,214.756766 L60.1849944,215.666541 Z" fill="#B4B4B4"></path>
                    <path id="show" d="M60.187867,215.666596 L60.1969377,218.525046 L60.2171807,221.055122 L60.2181628,221.557148 C60.2181628,224.521115 61.5104518,225.437102 64.5496389,225.519289 L65.1296191,225.526023 L66.4912566,225.512565 L67.2292384,225.509994 L67.7594313,225.498005 L68.2646733,225.47446 C71.8789024,225.257356 73.5004838,224.040061 73.5707693,220.329053 L73.582079,218.958315 L73.6912776,214.740469 L73.7165933,213.54697 L73.7269438,212.700017 L73.7293144,211.888781 L73.7172855,210.738024 L73.6984617,210.014334 L73.6622766,209.157935 L73.6622766,209.157935 L73.6115116,208.354379 L73.5600287,207.749056 C73.3061338,205.099473 72.7493637,203.449836 71.7730706,202.636259 C68.9286011,200.265867 65.1454825,199.320088 62.3512767,200.25149 C61.9541788,200.383856 61.6149674,200.912177 61.3310124,201.792549 L61.2271143,202.139106 L61.1770982,202.3246 L61.0809127,202.719699 L60.9898305,203.146517 L60.9038207,203.604538 L60.8228524,204.09325 L60.746895,204.612136 L60.6759175,205.160684 L60.6098891,205.738377 L60.548779,206.344702 L60.4925564,206.979144 L60.4411905,207.641189 L60.3946504,208.330322 L60.3529053,209.046028 L60.3159245,209.787794 L60.283677,210.555105 L60.256132,211.347446 L60.2235645,212.581763 L60.2076411,213.434429 L60.1923614,214.756821 L60.187867,215.666596 Z" fill="#FFFFFF"></path>
                    <path id="show" d="M60.233867,212.282165 L73.727867,212.282165 L73.7293144,212.019725 L73.722867,211.292165 L60.261867,211.292165 L60.233867,212.282165 Z M60.198867,214.262165 L73.703867,214.262165 L73.7165933,213.677914 L73.720867,213.272165 L60.211867,213.272165 L60.198867,214.262165 Z M60.298867,210.302165 L73.701867,210.302165 L73.6984617,210.145278 L73.6706622,209.455906 L73.662867,209.312165 L60.345867,209.312165 L60.298867,210.302165 Z M60.187867,215.79754 L60.188867,216.242165 L73.655867,216.242165 L73.680867,215.252165 L60.189867,215.252165 L60.187867,215.79754 Z M60.192867,217.232165 L60.195867,218.222165 L73.603867,218.222165 L73.629867,217.232165 L60.192867,217.232165 Z M60.402867,208.322165 L73.596867,208.322165 L73.5600287,207.88 L73.5014008,207.331325 L60.474867,207.332165 L60.402867,208.322165 Z M60.200867,219.212165 L60.208867,220.202165 L73.571867,220.202165 L73.580867,219.212165 L60.200867,219.212165 Z M73.5339275,221.192937 L60.216867,221.192165 L60.2181628,221.688092 C60.2181628,221.860012 60.2225105,222.025041 60.2312947,222.183417 L73.3897448,222.183641 C73.4557919,221.878895 73.5036795,221.549247 73.5339275,221.192937 Z M60.561867,206.342165 L73.35904,206.342208 C73.2978781,205.987917 73.228505,205.657844 73.1504573,205.351339 L60.668867,205.352165 L60.6098891,205.869321 L60.561867,206.342165 Z M60.7502119,224.163451 L72.4279283,224.163135 C72.6893847,223.88293 72.9041931,223.554879 73.0742644,223.172517 L60.3632633,223.172951 C60.4509191,223.554474 60.5791377,223.882599 60.7502119,224.163451 Z M60.801867,204.362165 L72.8365589,204.362132 C72.6860704,203.980312 72.5143594,203.650956 72.3198081,203.371791 L60.970867,203.372165 L60.9038207,203.735482 L60.8228524,204.224194 L60.801867,204.362165 Z M61.1963667,202.382556 L71.2857284,202.381724 C70.7902234,202.009878 70.2711877,201.679116 69.7378143,201.391595 L61.5276978,201.391165 C61.4594103,201.551046 61.393858,201.728647 61.3310124,201.923493 L61.2271143,202.27005 L61.1963667,202.382556 Z" fill="#B4B4B4"></path>
                    <path id="show" d="M58.8819141,232.617695 L58.8518216,236.823557 L58.850425,239.246744 L58.8618388,240.666538 L58.8749461,241.577952 L58.8926714,242.461119 L58.9283292,243.732625 L58.9584218,244.544608 L58.9937904,245.327888 L59.0346231,246.082334 L59.0811078,246.807817 L59.1334326,247.504205 L59.1917855,248.171368 L59.2563545,248.809174 L59.3273277,249.417494 L59.3273277,249.417494 L59.404893,249.996197 L59.5114064,250.677727 L59.5114064,250.677727 L59.6288811,251.31252 L59.7309998,251.786533 C60.1718602,253.698751 60.8064264,254.824373 61.6959047,255.120866 C64.8416989,256.169464 68.9785803,255.135243 72.0741108,252.555635 C73.2562562,251.570513 73.9015193,249.826541 74.1938949,247.067083 L74.2512125,246.460134 L74.2981298,245.821537 L74.3350491,245.150732 L74.3623726,244.447156 L74.3862461,243.329123 L74.3862461,243.329123 L74.3913405,242.541168 L74.3882473,241.718479 L74.3691359,240.418093 L74.3691359,240.418093 L74.2428844,235.453082 L74.2340186,234.351524 C74.2340186,229.944789 72.3327513,228.339245 68.4724344,227.989541 L67.9689813,227.951601 C67.6262452,227.930697 67.2693017,227.918413 66.8981152,227.913796 L65.9918189,227.909921 L64.6717916,227.897793 L64.441569,227.899683 C60.8318832,227.944804 58.9649119,229.106036 58.8819141,232.617695 Z M59.8487227,238.757076 L59.8577934,235.898626 L59.8780365,233.36855 L59.8790186,232.866524 C59.8790186,229.902557 61.1713075,228.98657 64.2104947,228.904383 L64.7904749,228.897649 L66.1521123,228.911107 L66.8900941,228.913678 L67.4202871,228.925666 L67.9255291,228.949212 C71.5397581,229.166316 73.1613396,230.383611 73.231625,234.094619 L73.2429348,235.465357 L73.3521334,239.683203 L73.3774491,240.876702 L73.3877996,241.723655 L73.3901701,242.534891 L73.3781413,243.685648 L73.3781413,243.685648 L73.3593174,244.409338 L73.331518,245.09871 C73.326121,245.210767 73.3203382,245.321411 73.3141635,245.430651 L73.2723674,246.069293 L73.2208845,246.674616 C72.9669896,249.324198 72.4102195,250.973836 71.4339264,251.787413 C68.5894568,254.157805 64.8063382,255.103584 62.0121324,254.172182 C61.6150345,254.039816 61.2758231,253.511495 60.9918681,252.631123 L60.88797,252.284566 L60.837954,252.099072 L60.837954,252.099072 L60.7417685,251.703973 L60.6506862,251.277155 L60.5646764,250.819133 L60.4837082,250.330422 L60.4077507,249.811535 L60.3367732,249.262988 L60.2707448,248.685295 L60.2096347,248.07897 L60.1534122,247.444528 L60.1020462,246.782483 L60.0555061,246.09335 L60.0137611,245.377643 L59.9767802,244.635877 L59.9445327,243.868567 L59.9169878,243.076226 L59.8844203,241.841909 L59.8684969,240.989243 L59.8532172,239.666851 L59.8487227,238.757076 Z" fill="#B4B4B4"></path>
                    <path id="show" d="M59.8487227,238.757076 L59.8577934,235.898626 L59.8780365,233.36855 L59.8790186,232.866524 C59.8790186,229.902557 61.1713075,228.98657 64.2104947,228.904383 L64.7904749,228.897649 L66.1521123,228.911107 L66.8900941,228.913678 L67.4202871,228.925666 L67.9255291,228.949212 C71.5397581,229.166316 73.1613396,230.383611 73.231625,234.094619 L73.2429348,235.465357 L73.3521334,239.683203 L73.3774491,240.876702 L73.3877996,241.723655 L73.3901701,242.534891 L73.3781413,243.685648 L73.3781413,243.685648 L73.3593174,244.409338 L73.331518,245.09871 C73.326121,245.210767 73.3203382,245.321411 73.3141635,245.430651 L73.2723674,246.069293 L73.2208845,246.674616 C72.9669896,249.324198 72.4102195,250.973836 71.4339264,251.787413 C68.5894568,254.157805 64.8063382,255.103584 62.0121324,254.172182 C61.6150345,254.039816 61.2758231,253.511495 60.9918681,252.631123 L60.88797,252.284566 L60.837954,252.099072 L60.837954,252.099072 L60.7417685,251.703973 L60.6506862,251.277155 L60.5646764,250.819133 L60.4837082,250.330422 L60.4077507,249.811535 L60.3367732,249.262988 L60.2707448,248.685295 L60.2096347,248.07897 L60.1534122,247.444528 L60.1020462,246.782483 L60.0555061,246.09335 L60.0137611,245.377643 L59.9767802,244.635877 L59.9445327,243.868567 L59.9169878,243.076226 L59.8844203,241.841909 L59.8684969,240.989243 L59.8532172,239.666851 L59.8487227,238.757076 Z" fill="#FFFFFF"></path>
                    <path id="show" d="M59.8947227,242.272451 L73.3887227,242.272451 L73.3901701,242.534891 L73.3837227,243.262451 L59.9227227,243.262451 L59.8947227,242.272451 Z M59.8597227,240.292451 L73.3647227,240.292451 L73.3774491,240.876702 L73.3817227,241.282451 L59.8727227,241.282451 L59.8597227,240.292451 Z M59.9597227,244.252451 L73.3627227,244.252451 L73.3593174,244.409338 L73.331518,245.09871 L73.3237227,245.242451 L60.0067227,245.242451 L59.9597227,244.252451 Z M59.8487227,238.757076 L59.8497227,238.312451 L73.3167227,238.312451 L73.3417227,239.302451 L59.8507227,239.302451 L59.8487227,238.757076 Z M59.8537227,237.322451 L59.8567227,236.332451 L73.2647227,236.332451 L73.2907227,237.322451 L59.8537227,237.322451 Z M60.0637227,246.232451 L73.2577227,246.232451 L73.2208845,246.674616 L73.1622565,247.223291 L73.1622565,247.223291 L60.1357227,247.222451 L60.0637227,246.232451 Z M59.8617227,235.342451 L59.8697227,234.352451 L73.2327227,234.352451 L73.2417227,235.342451 L59.8617227,235.342451 Z M73.1947833,233.361678 L59.8777227,233.362451 L59.8790186,232.866524 C59.8790186,232.694604 59.8833663,232.529575 59.8921505,232.371199 L73.0506005,232.370975 C73.1166476,232.675721 73.1645353,233.005369 73.1947833,233.361678 Z M60.2227227,248.212451 L73.0198957,248.212408 C72.9587338,248.566699 72.8893607,248.896772 72.8113131,249.203277 L60.3297227,249.202451 L60.2707448,248.685295 L60.2227227,248.212451 Z M60.4110676,230.391165 L72.0887841,230.391481 C72.3502405,230.671686 72.5650488,230.999737 72.7351201,231.382099 L60.0241191,231.381665 C60.1117748,231.000142 60.2399934,230.672017 60.4110676,230.391165 Z M60.4627227,250.192451 L72.4974147,250.192484 C72.3469262,250.574303 72.1752151,250.90366 71.9806638,251.182825 L60.6317227,251.182451 L60.5646764,250.819133 L60.4837082,250.330422 L60.4627227,250.192451 Z M60.8572224,252.172059 L70.9465842,252.172891 C70.4510791,252.544738 69.9320434,252.8755 69.3986701,253.163021 L61.1885536,253.163451 C61.1202661,253.00357 61.0547138,252.825969 60.9918681,252.631123 L60.88797,252.284566 L60.8572224,252.172059 L60.8572224,252.172059 Z" fill="#B4B4B4"></path>
                    <path id="show" d="M85.4890186,194.238627 L85.4890186,260.744421 C85.4890186,261.010976 85.5319917,261.275789 85.616284,261.528665 C86.0494105,262.828045 87.453884,263.530282 88.7532634,263.097155 L96.7932634,260.417155 C97.8059519,260.079592 98.4890186,259.131888 98.4890186,258.064421 L98.4890186,196.918627 C98.4890186,195.85116 97.8059519,194.903455 96.7932634,194.565893 L88.7532634,191.885893 C88.5003866,191.8016 88.2355742,191.758627 87.9690186,191.758627 C86.5993524,191.758627 85.4890186,192.868961 85.4890186,194.238627 Z M86.4890186,260.744421 L86.4890186,194.238627 C86.4890186,193.421246 87.1516371,192.758627 87.9690186,192.758627 C88.1280921,192.758627 88.2861253,192.784272 88.4370356,192.834576 L96.4770356,195.514576 C97.081382,195.716025 97.4890186,196.28159 97.4890186,196.918627 L97.4890186,258.064421 C97.4890186,258.701458 97.081382,259.267023 96.4770356,259.468472 L88.4370356,262.148472 C87.6615995,262.406951 86.823446,261.987874 86.5649673,261.212438 C86.5146638,261.061527 86.4890186,260.903494 86.4890186,260.744421 Z" fill="#B4B4B4"></path>
                    <path id="show" d="M86.4890186,260.744421 L86.4890186,194.238627 C86.4890186,193.421246 87.1516371,192.758627 87.9690186,192.758627 C88.1280921,192.758627 88.2861253,192.784272 88.4370356,192.834576 L96.4770356,195.514576 C97.081382,195.716025 97.4890186,196.28159 97.4890186,196.918627 L97.4890186,258.064421 C97.4890186,258.701458 97.081382,259.267023 96.4770356,259.468472 L88.4370356,262.148472 C87.6615995,262.406951 86.823446,261.987874 86.5649673,261.212438 C86.5146638,261.061527 86.4890186,260.903494 86.4890186,260.744421 Z" fill="#FFFFFF"></path>
                    <path id="show" d="M85.4890186,166.09665 L85.4890186,183.440485 C85.4890186,185.742313 86.9351707,187.795955 89.1023497,188.571679 L95.17325,190.744708 C95.4414406,190.840705 95.724165,190.88978 96.0090186,190.88978 C97.3786847,190.88978 98.4890186,189.779446 98.4890186,188.40978 L98.4890186,174.496969 C98.4890186,172.918358 97.9092021,171.394735 96.8597048,170.215518 L96.3542038,169.657938 L95.8562101,169.129644 C91.655255,164.763845 88.2711512,163.580993 85.7866575,165.813946 L85.4890186,166.09665 Z M86.4883205,166.53 L86.5823733,166.449557 C88.4565603,164.920941 91.1163595,165.810337 94.6282971,169.30493 L95.1124857,169.79763 C95.4388077,170.136886 95.7721972,170.497743 96.1127041,170.880342 C96.9992363,171.876451 97.4890186,173.163485 97.4890186,174.496969 L97.4890186,188.40978 C97.4890186,189.227161 96.8264,189.88978 96.0090186,189.88978 C95.8390253,189.88978 95.6703027,189.860493 95.5102534,189.803205 L89.4393532,187.630175 C87.6698217,186.996786 86.4890186,185.31996 86.4890186,183.440485 L86.4883205,166.53 Z" fill="#B4B4B4"></path>
                    <path id="show" d="M86.4883205,166.53 L86.5823733,166.449557 C88.4565603,164.920941 91.1163595,165.810337 94.6282971,169.30493 L95.1124857,169.79763 C95.4388077,170.136886 95.7721972,170.497743 96.1127041,170.880342 C96.9992363,171.876451 97.4890186,173.163485 97.4890186,174.496969 L97.4890186,188.40978 C97.4890186,189.227161 96.8264,189.88978 96.0090186,189.88978 C95.8390253,189.88978 95.6703027,189.860493 95.5102534,189.803205 L89.4393532,187.630175 C87.6698217,186.996786 86.4890186,185.31996 86.4890186,183.440485 L86.4883205,166.53 Z" fill="#FFFFFF"></path>
                    <path id="show" d="M85.4890186,288.504024 L85.4890186,271.160189 C85.4890186,268.858361 86.9351707,266.804719 89.1023497,266.028995 L95.17325,263.855966 C95.4414406,263.759969 95.724165,263.710894 96.0090186,263.710894 C97.3786847,263.710894 98.4890186,264.821228 98.4890186,266.190894 L98.4890186,280.103705 C98.4890186,281.682316 97.9092021,283.205939 96.8597048,284.385156 L96.3542038,284.942736 L95.8562101,285.47103 C91.655255,289.836829 88.2711512,291.019681 85.7866575,288.786728 L85.4890186,288.504024 Z M86.4883205,288.070674 L86.5823733,288.151117 C88.4565603,289.679733 91.1163595,288.790337 94.6282971,285.295744 L95.1124857,284.803044 C95.4388077,284.463788 95.7721972,284.102931 96.1127041,283.720332 C96.9992363,282.724223 97.4890186,281.437189 97.4890186,280.103705 L97.4890186,266.190894 C97.4890186,265.373513 96.8264,264.710894 96.0090186,264.710894 C95.8390253,264.710894 95.6703027,264.740181 95.5102534,264.797469 L89.4393532,266.970499 C87.6698217,267.603888 86.4890186,269.280714 86.4890186,271.160189 L86.4883205,288.070674 Z" fill="#B4B4B4"></path>
                    <path id="show" d="M86.4883205,288.070674 L86.5823733,288.151117 C88.4565603,289.679733 91.1163595,288.790337 94.6282971,285.295744 L95.1124857,284.803044 C95.4388077,284.463788 95.7721972,284.102931 96.1127041,283.720332 C96.9992363,282.724223 97.4890186,281.437189 97.4890186,280.103705 L97.4890186,266.190894 C97.4890186,265.373513 96.8264,264.710894 96.0090186,264.710894 C95.8390253,264.710894 95.6703027,264.740181 95.5102534,264.797469 L89.4393532,266.970499 C87.6698217,267.603888 86.4890186,269.280714 86.4890186,271.160189 L86.4883205,288.070674 Z" fill="#FFFFFF"></path>

                </g>
            </g>
        </g>
    </g>
</svg>
