<?xml version="1.0" encoding="UTF-8"?>
<svg width="640px" height="600px" viewBox="0 0 640 600" version="1.1" xmlns="http://www.w3.org/2000/svg" xmlns:xlink="http://www.w3.org/1999/xlink">
    <title>bg_10</title>
    <g id="页面-1" stroke="none" stroke-width="1" fill="none" fill-rule="evenodd">
        <g id="漆面检查-切图" transform="translate(-55.000000, -516.000000)">
            <g id="编组-19" transform="translate(55.000000, 516.000000)">
                <g id="bg_10" transform="translate(295.288435, 251.421369)">
                    <path id="clickArea" d="M2.62202187,0.222941082 L2.527,4.26325641e-14 L2.74958943,0.0415994993 C3.38832476,0.157302354 4.04110126,0.270237906 4.70792082,0.380406618 L6.06028459,0.597055056 L7.45009988,0.80632607 C8.15437097,0.909117357 8.87268765,1.00914242 9.60505181,1.10640171 L11.0885107,1.29723275 L12.6094328,1.48068922 C12.866042,1.5106508 13.1242123,1.54030514 13.3839437,1.56965226 L14.9610672,1.74204843 L16.5756624,1.9070721 L18.2277328,2.06472407 L19.9172816,2.21500516 L21.6443123,2.3579162 L23.4088282,2.49345801 L25.2108327,2.6216314 L27.0503291,2.74243718 C27.3600364,2.76195756 27.6713059,2.78117099 27.9841379,2.80007748 L29.8798785,2.90983341 L31.8131196,3.01222378 L33.7838644,3.10724942 C34.1154474,3.12247335 34.4485932,3.13739044 34.7833018,3.15200072 L37.8378788,3.27520978 L39.9211551,3.34814613 L42.0419486,3.41372103 L44.2002627,3.47193528 C44.5631086,3.48102432 44.9275181,3.48980669 45.293491,3.49828242 L47.5080924,3.54545726 L49.7602227,3.5852735 L52.0498854,3.61773196 C52.4346237,3.6225286 52.8209261,3.62701871 53.2087924,3.63120228 L55.5547601,3.65262563 L57.9382685,3.66669324 L60.3593211,3.67340594 C60.7659587,3.67391187 61.1741608,3.67411137 61.5839275,3.67400446 L64.0613027,3.66968634 L66.5762304,3.65801536 L70.4190406,3.62672406 L73.0278646,3.59667451 L75.674253,3.55927496 L78.3582091,3.51452624 L81.0797364,3.46242916 L85.2324806,3.37050716 L88.0479504,3.30004276 L90.9010032,3.22223288 L93.7916422,3.13707832 L98.1980825,2.99557701 L101.182702,2.89206435 L105.730129,2.72302972 L108.80875,2.60116408 L113.497195,2.40460382 L115.646,2.102 L115.510251,1.71833926 C121.003849,17.0827877 123.75,32.4436131 123.75,47.803 L123.745544,48.8746107 C123.623751,63.519989 121.005186,78.1667215 115.888727,92.8167019 L115.645,93.503 L113.545929,93.2059037 L110.408059,93.0727661 L105.818389,92.888635 L102.804809,92.7748828 L98.3537308,92.6177578 L93.9857937,92.4768367 L91.1200194,92.3918916 L86.8906254,92.2779777 L82.7443426,92.1802684 L78.6811598,92.0987639 L76.0185325,92.0534303 L72.0938252,91.9989344 L69.5235045,91.9716068 L66.9901008,91.9514817 L64.4936107,91.9385592 L62.034031,91.9328393 L58.4138611,91.9377645 L54.8767209,91.9588961 L52.5647497,91.9819875 L50.2896724,92.0122818 L48.0514857,92.0497792 L45.8501863,92.0944797 L43.685771,92.1463834 L41.5582365,92.2054903 L39.4675794,92.2718006 L37.4137965,92.3453143 C37.0745721,92.3581669 36.7368839,92.3713196 36.4007319,92.3847725 L33.4168402,92.5139522 L31.4736602,92.6090765 L29.5673413,92.7114045 L27.6978801,92.8209362 L25.8652733,92.9376718 L24.0695178,93.0616113 L22.3106101,93.1927547 L20.5885471,93.3311021 C20.3046068,93.3547604 20.0222015,93.3787188 19.7413313,93.4029774 L18.074529,93.552131 C17.2503372,93.6285088 16.4399591,93.7075883 15.6433928,93.7893693 L14.0686753,93.9565335 C13.2905239,94.0419168 12.5261831,94.1300016 11.775651,94.2207881 L10.2929978,94.4059635 L8.84716459,94.5983433 L7.43814807,94.7979278 L6.06594493,95.004717 C5.61467909,95.0748475 5.16954826,95.1461788 4.7305519,95.2187109 L3.43196569,95.4399097 L2.528,95.602 L2.62202046,95.3830642 C3.05245751,94.3093343 3.19036769,93.1266903 2.99782458,91.9501421 C2.16139059,86.8390716 1.49991855,81.2887773 1.0134969,75.2993964 L0.857839818,73.2866739 C0.83297757,72.9485097 0.80865563,72.6089905 0.784874016,72.2681161 L0.648668341,70.2066082 C0.583807572,69.1677237 0.523809996,68.1166433 0.468676023,67.0533678 L0.364893,64.9105568 C0.348676671,64.5507117 0.333000772,64.1895115 0.317865319,63.8269565 L0.23353807,61.635367 C0.0908283666,57.5876447 0.0135162689,53.3759796 0.00162195894,49.000403 L2.84217094e-14,47.803 C2.84217094e-14,42.9971329 0.0778547473,38.3863306 0.23353804,33.9706339 L0.317865277,31.7790445 C0.333000728,31.4164894 0.348676625,31.0552894 0.364892952,30.6954442 L0.468675961,28.5526333 C0.523809927,27.4893579 0.583807495,26.4382776 0.648668255,25.3993931 L0.78487391,23.3378854 C0.808655522,22.997011 0.832977458,22.6574918 0.857839703,22.3193277 L1.01349676,20.3066052 C1.49991835,14.3172246 2.16139029,8.76693064 2.99782416,3.65586048 C3.19036774,2.47931348 3.0524582,1.29667052 2.62202187,0.222941082 Z" fill="#DFEDFF" fill-rule="nonzero"></path>
                    <path d="M73.8938856,38.6506313 C76.1038856,38.6506313 77.7678856,39.6126313 78.9118856,41.5886313 C79.8998856,43.2526313 80.3938856,45.4886313 80.3938856,48.2966313 C80.3938856,51.1046313 79.8998856,53.3406313 78.9118856,55.0046313 C77.7678856,56.9546313 76.1038856,57.9426313 73.8938856,57.9426313 C71.6578856,57.9426313 69.9938856,56.9546313 68.8758856,55.0046313 C67.8878856,53.3406313 67.3938856,51.1046313 67.3938856,48.2966313 C67.3938856,45.4886313 67.8878856,43.2526313 68.8758856,41.5886313 C69.9938856,39.6126313 71.6578856,38.6506313 73.8938856,38.6506313 Z M63.3118856,39.0146313 L63.3118856,57.5786313 L61.1798856,57.5786313 L61.1798856,41.6146313 C60.0098856,42.8106313 58.5538856,43.6426313 56.8118856,44.1626313 L56.8118856,44.1626313 L56.8118856,42.0306313 C57.6438856,41.7966313 58.5278856,41.4326313 59.4118856,40.9126313 C60.2958856,40.3406313 61.0238856,39.7166313 61.6478856,39.0146313 L61.6478856,39.0146313 L63.3118856,39.0146313 Z M73.8938856,40.4706313 C72.2298856,40.4706313 71.0338856,41.3546313 70.3058856,43.1486313 C69.7858856,44.3966313 69.5258856,46.1126313 69.5258856,48.2966313 C69.5258856,50.4546313 69.7858856,52.1706313 70.3058856,53.4446313 C71.0338856,55.2126313 72.2298856,56.1226313 73.8938856,56.1226313 C75.5578856,56.1226313 76.7538856,55.2126313 77.4818856,53.4446313 C78.0018856,52.1706313 78.2878856,50.4546313 78.2878856,48.2966313 C78.2878856,46.1126313 78.0018856,44.3966313 77.4818856,43.1486313 C76.7538856,41.3546313 75.5578856,40.4706313 73.8938856,40.4706313 Z M49.6808856,45.5786313 C51.3377399,45.5786313 52.6808856,46.921777 52.6808856,48.5786313 C52.6808856,50.2354855 51.3377399,51.5786313 49.6808856,51.5786313 C48.0240314,51.5786313 46.6808856,50.2354855 46.6808856,48.5786313 C46.6808856,46.921777 48.0240314,45.5786313 49.6808856,45.5786313 Z" id="10" fill="#1677FE"></path>
                </g>
            </g>
        </g>
    </g>
</svg>
