<?xml version="1.0" encoding="UTF-8"?>
<svg width="640px" height="600px" viewBox="0 0 640 600" version="1.1" xmlns="http://www.w3.org/2000/svg" xmlns:xlink="http://www.w3.org/1999/xlink">
    <title>bg_2</title>
    <g id="页面-1" stroke="none" stroke-width="1" fill="none" fill-rule="evenodd">
        <g id="漆面检查-切图" transform="translate(-55.000000, -516.000000)">
            <g id="编组-19" transform="translate(55.000000, 516.000000)">
                <g id="bg_2" transform="translate(248.250917, 446.880111)">
                    <path id="clickArea" d="M88.491,-1.0658141e-14 L88.4554873,0.167340413 L88.4230339,0.296155132 L88.3349465,0.605177985 L88.2682823,0.808524506 L87.428526,3.18551229 L87.3903854,3.29741882 C86.9028718,4.75028726 86.4816731,6.29349961 86.0800239,8.21912096 C85.9800517,8.69841621 85.8826673,9.19582219 85.7879121,9.71232584 L85.6019196,10.7710891 C85.4194573,11.8559007 85.2476223,13.0197348 85.0867461,14.2704866 L84.929535,15.5505034 C84.8271793,16.4235529 84.7297432,17.3364022 84.637325,18.2913907 L84.5842952,18.8675779 C83.9293432,26.3653444 84.4793845,35.5750067 86.2322254,46.5001459 L86.518985,48.2394245 C86.8157395,49.9929601 87.1424779,51.7892686 87.4991914,53.6283639 L87.742,54.864 L4.16023933,55.4595536 L3.95406661,55.4595536 C1.53233239,55.4595536 0.508846399,54.6144298 0.156289924,52.0561511 L0.104884781,51.6261414 L0.0645525087,51.1652756 L0.0346038821,50.6727313 L0.0143496768,50.1476858 C0.0117435541,50.0574241 0.00951264789,49.965774 0.00764259939,49.8727182 L-5.54223334e-13,49.2973787 L-5.54223334e-13,12.399544 L0.00443557093,12.1228934 C0.0961823993,9.27077926 1.61364893,6.61168094 4.78275453,3.04154084 L5.275,2.494 L88.491,-1.0658141e-14 Z" fill="#DFEDFF" fill-rule="nonzero"></path>
                    <g id="编组-15" transform="translate(34.718403, 36.119889)">
                        <polygon id="路径-30" fill="#95C1FF" fill-rule="nonzero" points="7.5 3 7.5 53 6.5 53 6.5 3"></polygon>
                        <path d="M7.26,65.072 C8.976,65.072 10.38,65.566 11.498,66.554 C12.59,67.542 13.162,68.868 13.162,70.48 C13.162,72.092 12.538,73.548 11.342,74.848 C10.692,75.524 9.418,76.538 7.494,77.838 C5.128,79.424 3.776,80.854 3.438,82.102 L3.438,82.102 L13.188,82.102 L13.188,84 L0.812,84 C0.812,82.31 1.41,80.776 2.658,79.398 C3.386,78.566 4.712,77.448 6.688,76.096 C8.144,75.056 9.106,74.302 9.6,73.782 C10.536,72.768 11.03,71.65 11.03,70.454 C11.03,69.31 10.692,68.452 10.016,67.828 C9.34,67.204 8.378,66.892 7.182,66.892 C5.908,66.892 4.92,67.308 4.244,68.192 C3.516,69.024 3.126,70.272 3.1,71.91 L3.1,71.91 L0.968,71.91 C0.968,69.83 1.566,68.166 2.71,66.944 C3.854,65.696 5.388,65.072 7.26,65.072 Z M7,0 C8.65685425,0 10,1.34314575 10,3 C10,4.65685425 8.65685425,6 7,6 C5.34314575,6 4,4.65685425 4,3 C4,1.34314575 5.34314575,0 7,0 Z" id="形状结合" fill="#1677FE"></path>
                    </g>
                </g>
            </g>
        </g>
    </g>
</svg>
