<?xml version="1.0" encoding="UTF-8"?>
<svg width="640px" height="600px" viewBox="0 0 640 600" version="1.1" xmlns="http://www.w3.org/2000/svg" xmlns:xlink="http://www.w3.org/1999/xlink">
    <title>bg_3</title>
    <g id="页面-1" stroke="none" stroke-width="1" fill="none" fill-rule="evenodd">
        <g id="漆面检查-切图" transform="translate(-55.000000, -516.000000)">
            <g id="编组-19" transform="translate(55.000000, 516.000000)">
                <g id="bg_3" transform="translate(333.568141, 444.515111)">
                    <path id="clickArea" d="M4.19677589,2.335 L82.1397759,-1.0658141e-14 L82.3120129,0.312960348 L82.5932482,0.846305364 C82.6370489,0.931589851 82.6793132,1.0150656 82.72004,1.09672427 L82.945944,1.5648046 C83.2225305,2.15966047 83.4006018,2.63715541 83.4796824,2.99301799 C83.5385116,3.25774959 83.5040103,3.66638863 83.3765068,4.21804455 L83.288847,4.56619301 L83.1788824,4.94862278 L83.0466288,5.3652911 L82.8921019,5.81615525 L82.7153175,6.30117246 L82.5162913,6.8203 L82.2950391,7.37349511 L82.0515767,7.96071506 L81.7859198,8.58191709 L81.4980841,9.23705846 L81.1880854,9.92609643 L80.8559395,10.6489882 L80.3162291,11.7967084 L79.9287841,12.6040479 L79.3061988,13.8782391 L78.6339595,15.2281206 L77.9121193,16.653548 L76.8726009,18.6713847 L76.3198493,19.7304639 L74.8418688,22.524122 L73.8892612,24.30019 L72.1920537,27.4262952 L70.7358542,30.0761876 L69.1922947,32.8581612 L67.9773709,35.0311139 L66.2812348,38.0434067 L64.4980853,41.1868403 L62.1469781,45.3000281 L59.1467911,50.5046856 L57.0271835,54.1562489 C56.0603156,55.8176281 54.2882593,56.8454282 52.3659335,56.8597151 L3.44277589,57.222 L3.16755105,55.8229672 L2.82969159,54.0464528 L2.5108902,52.2973277 C2.45934471,52.0080894 2.40859324,51.7199925 2.35863574,51.433037 L2.06841821,49.7250018 C0.150367383,38.1470317 -0.433127217,28.4880221 0.3154509,20.7527149 L0.456568148,19.3638033 L0.604975229,18.0364426 L0.760591357,16.7688868 C1.05244651,14.4987885 1.38023998,12.5214024 1.74173162,10.7883082 C2.08305038,9.15192852 2.43901931,7.79689609 2.83740505,6.54318528 L3.01609398,5.99696316 L3.91480185,3.45060237 L3.9743739,3.26126245 L4.05860656,2.96889778 C4.10988065,2.77898408 4.15151181,2.59812408 4.18421485,2.42068709 L4.19677589,2.335 Z" fill="#DFEDFF" fill-rule="nonzero"></path>
                    <g id="3" transform="translate(25.401179, 38.484889)">
                        <polygon id="路径-30" fill="#95C1FF" fill-rule="nonzero" points="7.5 3 7.5 53 6.5 53 6.5 3"></polygon>
                        <path d="M7.182,65.072 C8.95,65.072 10.406,65.514 11.498,66.424 C12.564,67.334 13.11,68.556 13.11,70.116 C13.11,72.196 12.096,73.6 10.068,74.276 C11.16,74.614 11.992,75.134 12.564,75.862 C13.188,76.59 13.5,77.5 13.5,78.592 C13.5,80.282 12.902,81.66 11.732,82.726 C10.536,83.818 8.976,84.364 7.052,84.364 C5.284,84.364 3.854,83.896 2.736,83.012 C1.41,81.92 0.682,80.334 0.526,78.254 L0.526,78.254 L2.684,78.254 C2.736,79.71 3.23,80.828 4.14,81.582 C4.92,82.206 5.882,82.544 7.052,82.544 C8.378,82.544 9.444,82.154 10.25,81.4 C10.978,80.672 11.368,79.762 11.368,78.67 C11.368,77.552 11.004,76.694 10.276,76.07 C9.548,75.446 8.56,75.16 7.26,75.16 L7.26,75.16 L5.752,75.16 L5.752,73.496 L7.182,73.496 C8.43,73.496 9.366,73.21 10.016,72.664 C10.666,72.092 11.004,71.286 11.004,70.246 C11.004,69.206 10.666,68.4 10.042,67.828 C9.366,67.204 8.404,66.918 7.208,66.918 C5.96,66.918 4.998,67.23 4.296,67.906 C3.568,68.582 3.152,69.544 3.022,70.792 L3.022,70.792 L0.916,70.792 C1.072,68.998 1.748,67.594 2.892,66.58 C3.984,65.566 5.414,65.072 7.182,65.072 Z M7,0 C8.65685425,0 10,1.34314575 10,3 C10,4.65685425 8.65685425,6 7,6 C5.34314575,6 4,4.65685425 4,3 C4,1.34314575 5.34314575,0 7,0 Z" id="形状结合" fill="#1677FE"></path>
                    </g>
                </g>
            </g>
        </g>
    </g>
</svg>
