<?xml version="1.0" encoding="UTF-8"?>
<svg width="640px" height="600px" viewBox="0 0 640 600" version="1.1" xmlns="http://www.w3.org/2000/svg" xmlns:xlink="http://www.w3.org/1999/xlink">
    <title>bg_4</title>
    <g id="页面-1" stroke="none" stroke-width="1" fill="none" fill-rule="evenodd">
        <g id="漆面检查-切图" transform="translate(-55.000000, -516.000000)">
            <g id="编组-19" transform="translate(55.000000, 516.000000)">
                <g id="bg_4" transform="translate(249.847856, 408.858520)">
                    <path id="clickArea" d="M154.619499,7.43500649 C160.84102,9.3416017 167.067015,11.5798808 173.809282,14.2740237 L175.702847,15.037044 L176.953029,15.5473824 L179.506662,16.6048859 L182.20421,17.7409057 L183.634283,18.3493894 L194.135611,22.8601556 L195.765879,23.5487636 L197.297468,24.1866556 L198.736783,24.7758978 L200.090227,25.3185564 L200.947978,25.6554694 L202.172532,26.1250803 L203.32829,26.5536174 L204.063737,26.8175104 L204.773351,27.0646789 L205.45903,27.2957351 C205.57142,27.3329358 205.682892,27.3694907 205.793486,27.4054125 L206.446818,27.6134482 L207.080958,27.8069021 L207.697802,27.9863864 L208.299248,28.1525134 L209.006673,28.3350335 L209.429736,28.4357734 L210.089133,28.5809188 L210.783562,28.7198157 L211.268904,28.8094473 L212.034892,28.9402025 L212.851718,29.0674358 L213.725312,29.1921699 L214.661599,29.3154271 L216.017751,29.4792401 L217.509947,29.6446691 L219.58791,29.8574201 L228.608003,30.7011615 L230.412211,30.8809478 L232.122459,31.0620867 L233.361945,31.2016507 L235.149341,31.4173611 L236.294152,31.5658913 L237.402413,31.718584 L238.47488,31.8757687 C238.650684,31.9023588 238.825028,31.9291497 238.997927,31.9561484 L240.018119,32.1206883 C240.185304,32.1485454 240.351077,32.1766239 240.515453,32.2049308 L241.485068,32.3775667 C241.802768,32.4360618 242.115006,32.4955251 242.421908,32.5560115 L243.326729,32.7405944 C243.474907,32.771888 243.621781,32.8034511 243.767369,32.8352906 L244.625576,33.0296981 C244.906582,33.0956425 245.182565,33.1627472 245.453652,33.2310669 L246.252351,33.4397263 C248.082295,33.9353598 249.678492,34.4932216 251.084099,35.1321338 L251.447402,35.3030671 C255.159331,37.109952 257.56559,40.1719915 258.920116,44.2420683 L258.946,44.3223978 L258.421453,44.2733618 C257.327696,44.178324 256.182245,44.1229428 254.98485,44.1071346 L254.264272,44.1024085 L243.688527,44.1023978 L243.478627,44.1073941 C241.097798,44.2242627 239.228524,46.182038 239.228524,48.5623978 C239.228524,49.0813459 239.319093,49.5963124 239.496154,50.08412 L239.63088,50.4483029 C240.623596,53.0806623 241.720705,54.8700229 242.95432,55.8118856 L243.045,55.8773978 L242.589344,56.2996423 C234.606841,63.5896303 223.920195,68.7834345 210.521312,71.8763192 L210.06,71.9803978 L210.254587,72.266145 C204.321048,63.38238 194.360405,57.9369506 183.476,57.9369506 L182.943845,57.9412618 C165.416768,58.2254366 151.296,72.5221526 151.296,90.1169506 L151.298,100.506398 L1.125,100.506398 L1.126,94.4933978 L1.38604177,94.5289612 C1.59882064,94.5526665 1.82154487,94.5675357 2.05466357,94.5736883 L2.51367381,94.5765638 L136.041589,93.6120853 C138.222015,93.5958802 140.244672,92.4774573 141.417914,90.6438654 L141.554374,90.4205672 L144.754782,84.9004079 L146.770302,81.3997118 L148.694223,78.0376003 L150.526669,74.8137313 L151.841051,72.4863455 L153.513722,69.5035781 L155.095267,66.6581127 L156.944243,63.2938409 L158.321213,60.7560545 L159.607465,58.3544586 L160.803127,56.0887113 L161.367026,55.0066738 L162.427037,52.9440579 L163.162795,51.485704 L163.625116,50.5555823 L164.276359,49.2234642 L164.682385,48.377366 L165.24926,47.1710828 L165.59909,46.408741 L165.926469,45.6798269 L166.231414,44.9842977 L166.513939,44.3221108 L166.77406,43.6932233 L167.011794,43.0975926 L167.227156,42.5351758 L167.420162,42.0059302 C167.450467,41.9204845 167.479842,41.8364191 167.508286,41.7537332 L167.667787,41.2741643 C167.69251,41.1969927 167.716304,41.1211988 167.739168,41.0467816 L167.865199,40.6167932 L167.968938,40.2198049 C168.154132,39.4588 168.205661,38.8955399 168.124094,38.5284854 L168.085338,38.3695325 C167.926718,37.7690005 167.586374,36.9733908 167.063191,35.972075 L166.985,35.8243978 L180.410667,35.3714159 L184.475142,35.2044373 L184.991865,35.175997 C186.386725,34.9153831 188.092487,33.6593036 189.254421,32.1591384 C190.583394,30.44331 190.92903,28.7771702 189.716,27.8673978 L189.510367,27.7158045 L189.060508,27.3992359 L188.561156,27.0657958 C188.473937,27.0088812 188.384754,26.9513123 188.293656,26.8931131 L187.72448,26.5365509 C187.625919,26.4759283 187.52554,26.4147242 187.423394,26.3529627 L186.789697,25.9759006 L186.11593,25.5866287 L185.404449,25.1863124 L184.657611,24.7761171 L183.877772,24.3572082 L183.067287,23.9307513 L182.228513,23.4979117 L180.922463,22.839234 L179.566015,22.1727509 L178.167121,21.5023955 L177.21487,21.055283 L176.249644,20.6093631 L172.848893,19.051473 L168.013831,16.8216114 L165.936355,15.8762992 L164.392301,15.1845832 C158.587386,12.6052968 153.689379,10.6956759 148.481202,9.07703206 L147.235852,8.69733098 L145.927032,8.3144055 L143.954812,7.76858083 L143.327059,7.60261829 L142.410499,7.36695345 L141.600061,7.16508183 L140.836098,6.98031384 L139.596039,6.69165293 C139.218803,6.60593333 138.8393,6.52160449 138.45812,6.43881158 L137.29189,6.19139152 L135.640661,5.86085833 L134.277269,5.604942 L132.995744,5.37800327 L131.782462,5.17497169 L131.123325,5.06938269 L129.472143,4.81905933 L127.753321,4.57937229 L126.312345,4.39425446 L125.411205,4.2855937 L124.688803,4.20234092 L123.588386,4.08197657 L122.642196,3.9845785 C112.335163,2.95387314 103.199918,2.4320469 94.8637203,2.41878911 L93.9851608,2.41928726 C73.2195751,2.47622727 56.6618568,5.74856644 41.1995573,12.9643062 L40.2094134,13.430792 L39.1908016,13.9200336 C38.8074779,14.1059518 38.4256714,14.2931868 38.0453239,14.481767 L37.215736,14.8963831 L36.4666005,15.2765213 L35.2844536,15.8876544 C34.8192831,16.1308903 34.3567797,16.3759981 33.8965411,16.6231908 C33.3870524,16.896828 32.8801129,17.1731497 32.3758807,17.4520688 L31.6515787,17.8555637 L30.2077555,18.6770437 L29.4465088,19.1195501 L28.1148996,19.9096808 L26.5673703,20.8543562 L25.8117257,21.3261695 L24.7627554,21.9931034 L23.5614333,22.7740988 L22.5359901,23.4558411 L21.3069032,24.2919156 L20.6844597,24.7231348 L19.9378167,25.2478313 L18.974969,25.9364144 L17.8429083,26.7639093 L16.731947,27.5946667 L16.1546785,28.034377 L15.0886335,28.8598152 L14.315539,29.4703763 L13.24244,30.33468 L12.5307465,30.9190426 L11.4058573,31.8612822 L10.4491295,32.6811845 L9.45196333,33.5541036 L8.46879306,34.4341335 L7.45224384,35.3656766 L6.53769627,36.2212071 C5.62774858,37.0814985 4.73160415,37.9560639 3.84929561,38.844826 L3.119,39.5863978 L-5.68434189e-14,39.5863978 L0.597600517,38.9493201 C20.8111682,17.4996702 43.0139754,5.19218455 67.2162273,2.00767773 C94.7866659,-1.62001156 127.718198,-0.571481786 153.60148,7.12763523 L154.619499,7.43500649 Z" fill="#DFEDFF" fill-rule="nonzero"></path>
                    <g id="4" transform="translate(217.121464, 54.141480)">
                        <polygon id="路径-30" fill="#95C1FF" fill-rule="nonzero" points="3.45458716 2.79179214 33.321 68 64.5 68 64.5 69 32.6790581 69 2.54541284 3.20820786"></polygon>
                        <path d="M84.186,59.436 L84.186,72.046 L87.202,72.046 L87.202,73.788 L84.186,73.788 L84.186,78 L82.158,78 L82.158,73.788 L72.824,73.788 L72.824,71.76 L82.184,59.436 L84.186,59.436 Z M82.158,62.218 L82.08,62.218 L74.618,72.046 L82.158,72.046 L82.158,62.218 Z M3,0 C4.65685425,0 6,1.34314575 6,3 C6,4.65685425 4.65685425,6 3,6 C1.34314575,6 0,4.65685425 0,3 C0,1.34314575 1.34314575,0 3,0 Z" id="形状结合" fill="#1677FE"></path>
                    </g>
                </g>
            </g>
        </g>
    </g>
</svg>
