<?xml version="1.0" encoding="UTF-8"?>
<svg width="640px" height="600px" viewBox="0 0 640 600" version="1.1" xmlns="http://www.w3.org/2000/svg" xmlns:xlink="http://www.w3.org/1999/xlink">
    <title>bg_5</title>
    <g id="页面-1" stroke="none" stroke-width="1" fill="none" fill-rule="evenodd">
        <g id="漆面检查-切图" transform="translate(-55.000000, -516.000000)">
            <g id="编组-19" transform="translate(55.000000, 516.000000)">
                <g id="bg_5" transform="translate(143.969321, 40.000000)">
                    <path id="clickArea" d="M108.592,110.1 L108.173,109.5 L107.989886,109.29022 C104.911488,105.758215 103.416219,103.046718 103.289314,100.008398 L103.281706,99.64979 L103.282241,62.7390509 L103.285194,62.4098109 C103.335222,58.6243718 103.937337,56.7797735 105.84794,55.990177 L106.006,55.929 L106.006,49.651 L91.906,49.65 L91.9065968,60.0393365 C91.9065968,77.8118598 77.49912,92.2193365 59.7265968,92.2193365 L59.2280838,92.2155278 C49.271034,92.0633169 40.1199908,87.3573752 34.1788095,79.6090755 L33.952,79.31 L33.1804386,80.1141477 C27.476056,85.999504 22.0742646,90.381102 16.9726326,93.2570696 L16.5206021,93.5400289 C14.9930288,94.4690896 13.2578015,95.2565666 11.3267422,95.8961105 L10.949,96.017 L12.5648055,96.3508814 L14.338235,96.7102285 L16.1349171,97.0666018 L18.8689469,97.5950643 L21.6434866,98.1154951 L24.4514512,98.6270897 L27.2857555,99.1290439 L30.1393144,99.6205534 L32.0488852,99.9420266 L34.9187905,100.414341 L37.7890566,100.874066 L39.6992691,101.173158 L42.5543922,101.610113 L45.3909826,102.032333 L48.2019552,102.439015 L50.9802249,102.829354 L52.8107375,103.080104 L55.5187576,103.441417 L57.295877,103.672072 L59.9139666,104.002125 L62.4686511,104.312351 L64.9528454,104.601944 L66.5663149,104.783146 L69.6814229,105.116015 L69.6814229,105.116015 L71.1788628,105.267205 L73.3439759,105.474264 L74.7302919,105.598806 L76.0684845,105.712271 L77.3564545,105.814421 L78.5921026,105.905018 L79.7733295,105.983823 L80.8980358,106.050599 L81.9641224,106.105106 L82.9694898,106.147107 L83.9120389,106.176364 L84.3591004,106.186139 L84.3591004,106.186139 L85.2034857,106.195831 C85.6088366,106.197362 85.9886625,106.193891 86.3417826,106.185282 L87.0120651,106.161177 C87.5403776,106.135315 87.9923203,106.094937 88.3624266,106.039421 C94.7008946,105.088651 100.105808,106.105441 104.55756,109.100296 L104.83139,109.289131 C105.010952,109.414881 105.184944,109.540659 105.355833,109.668318 L105.933,110.1 L108.592,110.1 Z" fill="#DFEDFF" fill-rule="nonzero"></path>
                    <g id="5">
                        <polygon id="路径" fill="#95C1FF" fill-rule="nonzero" points="85.5282 93.5 86.4718 93.1689123 56.354447 7.33445614 17.5 7.33445614 17.5 8.33445614 55.645 8.33445614"></polygon>
                        <path d="M86,90 C87.6568542,90 89,91.3431458 89,93 C89,94.6568542 87.6568542,96 86,96 C84.3431458,96 83,94.6568542 83,93 C83,91.3431458 84.3431458,90 86,90 Z M12.72,0.436 L12.72,2.334 L3.672,2.334 L3.048,8.548 L3.152,8.548 C3.672,7.924 4.348,7.456 5.154,7.144 C5.882,6.832 6.662,6.702 7.52,6.702 C9.288,6.702 10.718,7.248 11.81,8.366 C12.902,9.51 13.474,11.07 13.474,13.072 C13.474,14.944 12.798,16.478 11.472,17.674 C10.224,18.792 8.664,19.364 6.844,19.364 C5.206,19.364 3.802,18.922 2.658,18.038 C1.358,17.05 0.656,15.698 0.526,14.008 L0.526,14.008 L2.632,14.008 C2.736,15.178 3.204,16.088 4.036,16.712 C4.764,17.258 5.726,17.544 6.87,17.544 C8.17,17.544 9.236,17.128 10.094,16.296 C10.926,15.464 11.368,14.398 11.368,13.098 C11.368,11.616 10.952,10.472 10.172,9.666 C9.418,8.834 8.352,8.444 7,8.444 C6.116,8.444 5.336,8.626 4.634,9.016 C3.906,9.38 3.334,9.952 2.97,10.68 L2.97,10.68 L0.942,10.68 L1.93,0.436 L12.72,0.436 Z" id="形状结合" fill="#1677FE"></path>
                    </g>
                </g>
            </g>
        </g>
    </g>
</svg>
