<?xml version="1.0" encoding="UTF-8"?>
<svg width="640px" height="600px" viewBox="0 0 640 600" version="1.1" xmlns="http://www.w3.org/2000/svg" xmlns:xlink="http://www.w3.org/1999/xlink">
    <title>bg_6</title>
    <g id="页面-1" stroke="none" stroke-width="1" fill="none" fill-rule="evenodd">
        <g id="漆面检查-切图" transform="translate(-55.000000, -516.000000)">
            <g id="编组-19" transform="translate(55.000000, 516.000000)">
                <g id="bg_6" transform="translate(248.250917, 32.000000)">
                    <path id="clickArea" d="M88.491,120.119889 L88.4554873,119.952549 L88.4230339,119.823734 L88.3349465,119.514711 L88.2682823,119.311365 L87.428526,116.934377 L87.3903854,116.82247 C86.9028718,115.369602 86.4816731,113.82639 86.0800239,111.900768 C85.9800517,111.421473 85.8826673,110.924067 85.7879121,110.407563 L85.6019196,109.3488 C85.4194573,108.263989 85.2476223,107.100155 85.0867461,105.849403 L84.929535,104.569386 C84.8271793,103.696336 84.7297432,102.783487 84.637325,101.828499 L84.5842952,101.252311 C83.9293432,93.7545449 84.4793845,84.5448826 86.2322254,73.6197434 L86.518985,71.8804648 C86.8157395,70.1269292 87.1424779,68.3306207 87.4991914,66.4915254 L87.742,65.2558893 L4.16023933,64.6603357 L3.95406661,64.6603357 C1.53233239,64.6603357 0.508846399,65.5054595 0.156289924,68.0637382 L0.104884781,68.4937479 L0.0645525087,68.9546137 L0.0346038821,69.447158 L0.0107201103,70.1086395 L0.0107201103,70.1086395 L-5.54223334e-13,70.8225106 L-5.54223334e-13,107.720345 L0.00443557093,107.996996 C0.0961823993,110.84911 1.61364893,113.508208 4.78275453,117.078348 L5.275,117.625889 L88.491,120.119889 Z" fill="#DFEDFF" fill-rule="nonzero"></path>
                    <g id="6" transform="translate(34.718403, 0.000000)">
                        <polygon id="路径" fill="#95C1FF" fill-rule="nonzero" points="7.5 81 7.5 31 6.5 31 6.5 81"></polygon>
                        <path d="M7,78 C8.65685425,78 10,79.3431458 10,81 C10,82.6568542 8.65685425,84 7,84 C5.34314575,84 4,82.6568542 4,81 C4,79.3431458 5.34314575,78 7,78 Z M7.26,0.072 C10.692,0.072 12.668,1.71 13.188,5.038 L13.188,5.038 L11.082,5.038 C10.666,2.906 9.392,1.866 7.234,1.866 C5.778,1.866 4.634,2.568 3.802,4.024 C2.97,5.376 2.58,7.118 2.58,9.224 L2.58,9.224 L2.58060641,9.34437318 C2.58212245,9.47020408 2.58742857,9.65857143 2.606,9.9 L2.606,9.9 L2.71,9.9 C3.178,8.938 3.828,8.184 4.712,7.664 C5.544,7.118 6.506,6.858 7.598,6.858 C9.366,6.858 10.796,7.43 11.888,8.574 C12.954,9.718 13.5,11.174 13.5,12.994 C13.5,14.814 12.902,16.348 11.732,17.544 C10.536,18.74 9.054,19.364 7.234,19.364 C4.972,19.364 3.282,18.506 2.138,16.842 C1.046,15.256 0.526,13.046 0.526,10.212 C0.526,7.248 1.098,4.83 2.268,2.984 C3.49,1.034 5.154,0.072 7.26,0.072 Z M7.182,8.626 C5.96,8.626 4.946,9.042 4.14,9.874 C3.334,10.706 2.944,11.746 2.944,13.046 C2.944,14.346 3.308,15.412 4.088,16.244 C4.868,17.128 5.882,17.57 7.182,17.57 C8.43,17.57 9.444,17.128 10.224,16.296 C11.004,15.412 11.394,14.32 11.394,12.994 C11.394,11.668 11.004,10.628 10.25,9.848 C9.47,9.016 8.456,8.626 7.182,8.626 Z" id="形状结合" fill="#1677FE"></path>
                    </g>
                </g>
            </g>
        </g>
    </g>
</svg>
