<?xml version="1.0" encoding="UTF-8"?>
<svg width="640px" height="600px" viewBox="0 0 640 600" version="1.1" xmlns="http://www.w3.org/2000/svg" xmlns:xlink="http://www.w3.org/1999/xlink">
    <title>bg_7</title>
    <g id="页面-1" stroke="none" stroke-width="1" fill="none" fill-rule="evenodd">
        <g id="漆面检查-切图" transform="translate(-55.000000, -516.000000)">
            <g id="编组-19" transform="translate(55.000000, 516.000000)">
                <g id="bg_7" transform="translate(333.568141, 32.000000)">
                    <path id="clickArea" d="M4.19677589,120.149889 L82.1397759,122.484889 L82.3120129,122.171929 L82.5932482,121.638584 L82.72004,121.388165 L82.72004,121.388165 L82.945944,120.920085 C83.2225305,120.325229 83.4006018,119.847734 83.4796824,119.491871 C83.5385116,119.22714 83.5040103,118.818501 83.3765068,118.266845 L83.288847,117.918696 L83.1788824,117.536267 L83.0466288,117.119598 L82.8921019,116.668734 L82.7153175,116.183717 L82.5162913,115.664589 L82.2950391,115.111394 L82.0515767,114.524174 L81.7859198,113.902972 L81.4980841,113.247831 L81.1880854,112.558793 L80.8559395,111.835901 L80.3162291,110.688181 L79.9287841,109.880841 L79.3061988,108.60665 L78.6339595,107.256769 L77.9121193,105.831341 L76.8726009,103.813505 L76.3198493,102.754425 L74.8418688,99.9607673 L73.8892612,98.1846993 L72.1920537,95.0585941 L70.7358542,92.4087017 L69.1922947,89.6267281 L67.9773709,87.4537754 L66.2812348,84.4414826 L64.4980853,81.298049 L62.1469781,77.1848612 L59.1467911,71.9802037 L57.0271835,68.3286404 C56.0603156,66.6672612 54.2882593,65.6394611 52.3659335,65.6251742 L3.44277589,65.2628893 L3.16755105,66.6619221 L2.82969159,68.4384365 L2.5108902,70.1875616 L2.35863574,71.0518523 L2.35863574,71.0518523 L2.06841821,72.7598875 C0.150367383,84.3378576 -0.433127217,93.9968672 0.3154509,101.732174 L0.456568148,103.121086 L0.604975229,104.448447 L0.760591357,105.716002 C1.05244651,107.986101 1.38023998,109.963487 1.74173162,111.696581 C2.08305038,113.332961 2.43901931,114.687993 2.83740505,115.941704 L3.01609398,116.487926 L3.91480185,119.034287 L3.9743739,119.223627 L4.05860656,119.515992 C4.10988065,119.705905 4.15151181,119.886765 4.18421485,120.064202 L4.19677589,120.149889 Z" fill="#DFEDFF" fill-rule="nonzero"></path>
                    <g id="7" transform="translate(25.901179, 0.000000)">
                        <polygon id="路径-30" fill="#95C1FF" points="6.5 81 7.5 81 7.5 31 6.5 31"></polygon>
                        <path d="M6.5,78 C8.15685425,78 9.5,79.3431458 9.5,81 C9.5,82.6568542 8.15685425,84 6.5,84 C4.84314575,84 3.5,82.6568542 3.5,81 C3.5,79.3431458 4.84314575,78 6.5,78 Z M12.467,0.436 L12.467,2.178 L5.629,19 L3.367,19 L10.283,2.386 L0.273,2.386 L0.273,0.436 L12.467,0.436 Z" id="形状结合" fill="#1677FE"></path>
                    </g>
                </g>
            </g>
        </g>
    </g>
</svg>
