<?xml version="1.0" encoding="UTF-8"?>
<svg width="640px" height="600px" viewBox="0 0 640 600" version="1.1" xmlns="http://www.w3.org/2000/svg" xmlns:xlink="http://www.w3.org/1999/xlink">
    <title>bg_8</title>
    <g id="页面-1" stroke="none" stroke-width="1" fill="none" fill-rule="evenodd">
        <g id="漆面检查-切图" transform="translate(-55.000000, -516.000000)">
            <g id="编组-19" transform="translate(55.000000, 516.000000)">
                <g id="bg_8" transform="translate(249.847856, 58.000000)">
                    <path id="clickArea" d="M154.619499,124.706473 C160.84102,122.799878 167.067015,120.561599 173.809282,117.867456 L175.702847,117.104436 L176.953029,116.594098 L179.506662,115.536594 L182.20421,114.400574 L183.634283,113.792091 L194.135611,109.281324 L195.765879,108.592716 L197.297468,107.954824 L198.736783,107.365582 L200.090227,106.822923 L200.947978,106.48601 L202.172532,106.0164 L203.32829,105.587862 L204.063737,105.323969 L204.773351,105.076801 L205.626932,104.790426 L205.626932,104.790426 L206.446818,104.528032 L207.080958,104.334578 L207.697802,104.155093 L208.299248,103.988966 L209.006673,103.806446 L209.429736,103.705706 L210.089133,103.560561 L210.783562,103.421664 L211.268904,103.332033 L212.034892,103.201277 L212.851718,103.074044 L213.725312,102.94931 L214.661599,102.826053 L216.017751,102.66224 L217.509947,102.496811 L219.58791,102.28406 L228.608003,101.440318 L230.412211,101.260532 L232.122459,101.079393 L233.361945,100.939829 L235.149341,100.724119 L236.294152,100.575589 L237.402413,100.422896 L238.997927,100.185331 L238.997927,100.185331 L240.515453,99.9365491 L240.515453,99.9365491 L241.485068,99.7639132 C241.802768,99.7054181 242.115006,99.6459548 242.421908,99.5854684 L243.326729,99.4008855 C243.474907,99.3695918 243.621781,99.3380287 243.767369,99.3061893 L244.625576,99.1117818 C244.906582,99.0458373 245.182565,98.9787327 245.453652,98.9104129 L246.252351,98.7017536 C248.082295,98.2061201 249.678492,97.6482583 251.084099,97.0093461 L251.447402,96.8384128 C255.159331,95.0315279 257.56559,91.9694884 258.920116,87.8994116 L258.946,87.8190821 L258.421453,87.8681181 C257.327696,87.9631559 256.182245,88.018537 254.98485,88.0343453 L254.264272,88.0390714 L243.688527,88.0390821 L243.478627,88.0340858 C241.097798,87.9172172 239.228524,85.9594419 239.228524,83.5790821 C239.228524,83.060134 239.319093,82.5451675 239.496154,82.0573598 L239.63088,81.693177 C240.623596,79.0608176 241.720705,77.2714569 242.95432,76.3295943 L243.045,76.2640821 L242.589344,75.8418376 C234.606841,68.5518496 223.920195,63.3580453 210.521312,60.2651607 L210.06,60.1610821 L210.254587,59.8753349 C204.321048,68.7590999 194.360405,74.2045293 183.476,74.2045293 L182.943845,74.2002181 C165.416768,73.9160433 151.296,59.6193273 151.296,42.0245293 L151.298,31.6350821 L1.125,31.6350821 L1.126,37.6480821 L1.38604177,37.6125187 C1.59882064,37.5888133 1.82154487,37.5739442 2.05466357,37.5677916 L2.51367381,37.5649161 L136.041589,38.5293946 C138.222015,38.5455997 140.244672,39.6640226 141.417914,41.4976145 L141.554374,41.7209127 L144.754782,47.2410719 L146.770302,50.741768 L148.694223,54.1038796 L150.526669,57.3277485 L151.841051,59.6551343 L153.513722,62.6379018 L155.095267,65.4833672 L156.944243,68.847639 L158.321213,71.3854254 L159.607465,73.7870212 L160.803127,76.0527686 L161.367026,77.134806 L162.427037,79.197422 L163.162795,80.6557758 L163.625116,81.5858975 L164.276359,82.9180157 L164.682385,83.7641138 L165.24926,84.9703971 L165.59909,85.7327389 L165.926469,86.461653 L166.231414,87.1571822 L166.513939,87.8193691 L166.77406,88.4482566 L167.011794,89.0438873 L167.227156,89.6063041 L167.420162,90.1355497 L167.508286,90.3877466 L167.508286,90.3877466 L167.667787,90.8673156 C167.69251,90.9444872 167.716304,91.0202811 167.739168,91.0946982 L167.865199,91.5246867 L167.968938,91.921675 C168.154132,92.6826798 168.205661,93.24594 168.124094,93.6129945 L168.085338,93.7719473 C167.926718,94.3724793 167.586374,95.1680891 167.063191,96.1694049 L166.985,96.3170821 L180.410667,96.770064 L184.475142,96.9370426 L184.991865,96.9654828 C186.386725,97.2260968 188.092487,98.4821763 189.254421,99.9823414 C190.583394,101.69817 190.92903,103.36431 189.716,104.274082 L189.510367,104.425675 L189.060508,104.742244 L188.561156,105.075684 L188.293656,105.248367 L188.293656,105.248367 L187.575282,105.696296 L187.575282,105.696296 L186.789697,106.165579 L186.11593,106.554851 L185.404449,106.955168 L184.657611,107.365363 L183.877772,107.784272 L183.067287,108.210729 L182.228513,108.643568 L180.922463,109.302246 L179.566015,109.968729 L178.167121,110.639084 L177.21487,111.086197 L176.249644,111.532117 L172.848893,113.090007 L168.013831,115.319868 L165.936355,116.265181 L164.392301,116.956897 C158.587386,119.536183 153.689379,121.445804 148.481202,123.064448 L147.235852,123.444149 L145.927032,123.827074 L143.954812,124.372899 L143.327059,124.538862 L142.410499,124.774526 L141.600061,124.976398 L140.836098,125.161166 L139.596039,125.449827 C139.218803,125.535547 138.8393,125.619875 138.45812,125.702668 L137.29189,125.950088 L135.640661,126.280622 L134.277269,126.536538 L132.995744,126.763477 L131.782462,126.966508 L131.123325,127.072097 L129.472143,127.322421 L127.753321,127.562108 L126.312345,127.747225 L125.411205,127.855886 L124.688803,127.939139 L123.588386,128.059503 L122.642196,128.156901 C112.335163,129.187607 103.199918,129.709433 94.8637203,129.722691 L93.9851608,129.722193 C73.2195751,129.665253 56.6618568,126.392913 41.1995573,119.177174 L40.2094134,118.710688 L39.1908016,118.221446 C38.8074779,118.035528 38.4256714,117.848293 38.0453239,117.659713 L37.215736,117.245097 L36.4666005,116.864959 L35.2844536,116.253825 C34.8192831,116.01059 34.3567797,115.765482 33.8965411,115.518289 C33.3870524,115.244652 32.8801129,114.96833 32.3758807,114.689411 L31.6515787,114.285916 L30.2077555,113.464436 L29.4465088,113.02193 L28.1148996,112.231799 L26.5673703,111.287124 L25.8117257,110.81531 L24.7627554,110.148376 L23.5614333,109.367381 L22.5359901,108.685639 L21.3069032,107.849564 L20.6844597,107.418345 L19.9378167,106.893649 L18.974969,106.205066 L17.8429083,105.377571 L16.731947,104.546813 L16.1546785,104.107103 L15.0886335,103.281665 L14.315539,102.671104 L13.24244,101.8068 L12.5307465,101.222437 L11.4058573,100.280198 L10.4491295,99.4602954 L9.45196333,98.5873763 L8.46879306,97.7073464 L7.45224384,96.7758033 L6.53769627,95.9202728 C5.62774858,95.0599814 4.73160415,94.1854159 3.84929561,93.2966539 L3.119,92.5550821 L-5.68434189e-14,92.5550821 L0.597600517,93.1921598 C20.8111682,114.64181 43.0139754,126.949295 67.2162273,130.133802 C94.7866659,133.761491 127.718198,132.712962 153.60148,125.013845 L154.619499,124.706473 Z" fill="#DFEDFF" fill-rule="nonzero"></path>
                    <g id="8" transform="translate(217.121464, 0.000000)">
                        <polygon id="路径" fill="#95C1FF" fill-rule="nonzero" points="3.45458716 75.5 33.321 10.2917921 64.5 10.2917921 64.5 9.29179214 32.6790581 9.29179214 2.54541284 75.0835843"></polygon>
                        <path d="M3,72 C4.65685425,72 6,73.3431458 6,75 C6,76.6568542 4.65685425,78 3,78 C1.34314575,78 0,76.6568542 0,75 C0,73.3431458 1.34314575,72 3,72 Z M80,0.072 C81.924,0.072 83.458,0.566 84.55,1.58 C85.538,2.49 86.058,3.634 86.058,4.986 C86.058,5.974 85.824,6.806 85.356,7.482 C84.836,8.21 84.108,8.756 83.146,9.094 L83.146,9.094 L83.146,9.146 C84.108,9.38 84.94,9.926 85.616,10.758 C86.344,11.642 86.708,12.682 86.708,13.878 C86.708,15.516 86.136,16.842 84.992,17.83 C83.796,18.844 82.132,19.364 80,19.364 C77.842,19.364 76.178,18.844 75.008,17.83 C73.864,16.842 73.292,15.516 73.292,13.878 C73.292,12.682 73.656,11.642 74.384,10.758 C75.06,9.926 75.866,9.38 76.854,9.146 L76.854,9.146 L76.854,9.094 C75.866,8.756 75.138,8.21 74.644,7.482 C74.176,6.806 73.942,5.974 73.942,4.986 C73.942,3.634 74.436,2.49 75.45,1.58 C76.542,0.566 78.05,0.072 80,0.072 Z M80,10.056 C78.492,10.056 77.348,10.42 76.542,11.174 C75.762,11.85 75.398,12.76 75.398,13.878 C75.398,14.97 75.762,15.88 76.542,16.556 C77.322,17.258 78.492,17.622 80,17.622 C81.508,17.622 82.652,17.258 83.484,16.53 C84.212,15.854 84.602,14.97 84.602,13.878 C84.602,12.76 84.212,11.85 83.484,11.174 C82.652,10.42 81.482,10.056 80,10.056 Z M80,1.814 C78.674,1.814 77.634,2.152 76.906,2.828 C76.256,3.4 75.944,4.154 75.944,5.064 C75.944,6 76.23,6.78 76.802,7.352 C77.478,8.028 78.544,8.392 80,8.392 C81.43,8.392 82.496,8.028 83.198,7.352 C83.77,6.78 84.056,6 84.056,5.064 C84.056,4.154 83.718,3.4 83.094,2.828 C82.34,2.152 81.3,1.814 80,1.814 Z" id="形状结合" fill="#1677FE"></path>
                    </g>
                </g>
            </g>
        </g>
    </g>
</svg>
