<?xml version="1.0" encoding="UTF-8"?>
<svg width="640px" height="600px" viewBox="0 0 640 600" version="1.1" xmlns="http://www.w3.org/2000/svg" xmlns:xlink="http://www.w3.org/1999/xlink">
    <title>bg_9</title>
    <g id="页面-1" stroke="none" stroke-width="1" fill="none" fill-rule="evenodd">
        <g id="漆面检查-切图" transform="translate(-55.000000, -516.000000)">
            <g id="编组-19" transform="translate(55.000000, 516.000000)">
                <g id="bg_9" transform="translate(132.935435, 232.382884)">
                    <path id="clickArea" d="M107.547619,2.65610133 L108.278,2.87348482 L108.019007,2.93926831 C103.960988,4.01242344 100.626479,7.1083983 99.3464002,11.2785787 C93.1514003,31.460331 90.0526854,49.9810879 90.0526854,66.8414848 C90.0526854,83.7018823 93.1514005,102.22264 99.346401,122.404393 L99.4437121,122.707596 C100.789564,126.724374 104.059948,129.696715 108.018865,130.743658 L108.278,130.808485 L107.451186,131.054178 C106.505827,131.328439 105.559498,131.582134 104.606475,131.814861 L103.651008,132.040585 C98.0619636,133.31636 92.1801935,133.874092 84.8693905,133.633924 L83.6018993,133.584921 C83.388247,133.575446 83.1733751,133.565316 82.9572572,133.55453 L81.6453846,133.481911 C81.4241764,133.468489 81.2016691,133.454406 80.9778362,133.439661 L79.6187201,133.343225 C78.9309965,133.291017 78.2308658,133.232813 77.5176122,133.168562 L76.073396,133.031983 C75.8297065,133.007872 75.5845058,132.983084 75.3377676,132.95762 L73.838675,132.796687 C73.5856803,132.768506 73.3310951,132.739643 73.0748928,132.710097 L71.5180614,132.52461 L69.6125953,132.28406 L67.4122672,131.997954 L65.2437664,131.708058 C64.885002,131.659426 64.5275637,131.610636 64.1714516,131.561688 L62.0506936,131.266106 L59.9617656,130.966735 L57.9046685,130.663575 L55.8794034,130.356627 L53.8859714,130.045891 L51.9243735,129.731368 C51.6000934,129.678632 51.2771398,129.625738 50.9555127,129.572687 L49.0416679,129.252484 L47.1596599,128.928496 L45.3094897,128.600723 L43.4911583,128.269166 L41.7046668,127.933824 L39.9500163,127.5947 L38.2272077,127.251793 L36.5362422,126.905103 L34.8771209,126.554632 L33.2498447,126.20038 C32.9812858,126.141023 32.7140538,126.081509 32.4481488,126.021837 L30.8686424,125.661915 C30.6080452,125.601613 30.3487751,125.541153 30.090832,125.480536 L28.5590976,125.114945 C28.0538276,124.992451 27.5538659,124.869328 27.0592125,124.745575 L25.5911779,124.372427 L24.1549948,123.995502 C23.2081568,123.742959 22.2825538,123.487899 21.3781872,123.230321 C21.1750955,123.172478 20.9868535,123.071878 20.8260315,122.935414 L20.7177318,122.834621 L20.0983527,122.203278 C13.4102077,115.324099 8.5092287,108.004946 5.39349834,100.246779 C2.97439043,94.2232011 1.35796653,86.488194 0.547925151,77.0444318 L0.423636038,75.4980332 C0.306416457,73.9366573 0.210407225,72.3303508 0.135624113,70.6791252 L0.0679169595,69.0129269 C0.0578118576,68.7327318 0.0482965161,68.451289 0.0393710081,68.1685987 L-7.88702437e-13,66.8764848 L-7.88702437e-13,66.8174848 L0.0143100174,66.3680465 C0.393906686,52.3920965 2.18981489,41.4133613 5.39349834,33.4361909 C8.5092287,25.6780236 13.4102077,18.3588707 20.1001565,11.4778458 L20.7349165,10.8316726 C20.9119218,10.6533297 21.1340614,10.5221792 21.3781872,10.4526484 C22.2825538,10.1950708 23.2081568,9.94001032 24.1549948,9.68746776 L25.5911779,9.31054244 L27.0592125,8.93739458 C27.3065392,8.87551809 27.555193,8.81379902 27.8051738,8.75223738 L29.3209837,8.38475678 C29.5762727,8.3238249 29.8328889,8.26305049 30.090832,8.20243353 L31.6544147,7.84062151 C31.9176658,7.78063447 32.1822438,7.72080493 32.4481488,7.66113288 L34.0595021,7.30499075 C34.3307148,7.24594877 34.6032544,7.18706431 34.8771209,7.12833739 L36.5362422,6.77786646 L38.2272077,6.43117705 L39.9500163,6.08826976 L41.7046668,5.74914515 L43.4911583,5.41380382 L45.3094897,5.08224635 L47.1596599,4.75447332 L49.0416679,4.43048531 L50.9555127,4.11028291 L52.9011931,3.79386669 L54.8787082,3.48123725 L56.8880569,3.17239516 L58.9292381,2.867341 L61.0022508,2.56607537 L64.1714516,2.12128166 L67.4122672,1.68501539 L69.6125953,1.39890966 C69.9819689,1.3515413 70.3526685,1.30433093 70.7246943,1.25727854 L71.5199526,1.15815178 L73.0809564,0.972378549 L74.6036222,0.803163617 L76.0891658,0.650408502 C85.3826202,-0.265125723 92.5156796,-0.196253169 98.8778554,0.744441289 L99.8762058,0.900200636 C102.522471,1.33479151 105.045035,1.92289309 107.547619,2.65610133 Z" fill="#DFEDFF" fill-rule="nonzero"></path>
                    <path d="M58.8258856,57.6891161 C61.0618856,57.6891161 62.7518856,58.5211161 63.8958856,60.1851161 C64.9878856,61.7451161 65.5338856,63.9811161 65.5338856,66.8411161 C65.5338856,69.8051161 64.9358856,72.1971161 63.7918856,74.0691161 C62.5438856,75.9931161 60.8798856,76.9811161 58.7998856,76.9811161 C55.3418856,76.9811161 53.3658856,75.3171161 52.8718856,72.0151161 L52.8718856,72.0151161 L54.9778856,72.0151161 C55.3678856,74.1211161 56.6418856,75.1871161 58.8258856,75.1871161 C60.2558856,75.1871161 61.3998856,74.4591161 62.2578856,73.0291161 C63.0638856,71.6511161 63.4798856,69.9091161 63.4798856,67.8291161 C63.4798856,67.6991161 63.4538856,67.4651161 63.4538856,67.1531161 L63.4538856,67.1531161 L63.3498856,67.1531161 C62.8818856,68.0891161 62.2058856,68.8431161 61.3478856,69.3891161 C60.5158856,69.9091161 59.5538856,70.1951161 58.4618856,70.1951161 C56.6678856,70.1951161 55.2378856,69.5971161 54.1458856,68.4271161 C53.0798856,67.3091161 52.5598856,65.8531161 52.5598856,64.0591161 C52.5598856,62.2131161 53.1318856,60.7051161 54.3278856,59.5091161 C55.4978856,58.2871161 57.0058856,57.6891161 58.8258856,57.6891161 Z M42.0338856,64.6171161 C43.6907399,64.6171161 45.0338856,65.9602619 45.0338856,67.6171161 C45.0338856,69.2739704 43.6907399,70.6171161 42.0338856,70.6171161 C40.3770314,70.6171161 39.0338856,69.2739704 39.0338856,67.6171161 C39.0338856,65.9602619 40.3770314,64.6171161 42.0338856,64.6171161 Z M58.8778856,59.4831161 C57.6038856,59.4831161 56.5898856,59.8991161 55.8098856,60.7571161 C55.0298856,61.6151161 54.6658856,62.7071161 54.6658856,64.0591161 C54.6658856,65.3591161 55.0298856,66.4251161 55.8098856,67.2051161 C56.5638856,68.0111161 57.5778856,68.4271161 58.8778856,68.4271161 C60.0738856,68.4271161 61.0878856,68.0111161 61.9198856,67.1791161 C62.6998856,66.3471161 63.1158856,65.2811161 63.1158856,64.0071161 C63.1158856,62.7071161 62.7258856,61.6411161 61.9718856,60.8091161 C61.1918856,59.9251161 60.1518856,59.4831161 58.8778856,59.4831161 Z" id="9" fill="#1677FE"></path>
                </g>
            </g>
        </g>
    </g>
</svg>
